<svg viewBox="0 0 100 97.6" xmlns="http://www.w3.org/2000/svg">
    <g fill="#00429a">
        <path d="m52.34.9c.06-.03.08-.11.05-.17-.02-.04-.07-.07-.12-.06-.1.02-.15.31.08.23z"/>
        <path d="m52.21 5.68s.08 0 .12-.02c.81-.23-.43-1.08-.49-.33 0 .2.17.36.38.35z"/>
        <path d="m49.02 6.09c.1.05.22.05.32 0 .87-.23-.28-1.15-.48-.48-.09.18-.02.39.16.48z"/>
        <path d="m53.35 2.51c.24-.04.38-.38.14-.51-.43-.23-.61.6-.14.51z"/>
        <path d="m53.54.22c.3-.11-.1-.29-.17-.19-.08.1.1.22.17.19z"/>
        <path d="m50.78 2.43c.72-.25-.72-.64-.36-.05.07.1.08.14.36.05z"/>
        <path d="m51.76 4.06c.15-.12-.18-.34-.25-.23s.06.39.25.23z"/>
        <path d="m50.22 4.38c.69-.26-.45-.92-.48-.26 0 .23.14.39.48.26z"/>
        <path d="m53.37 3.75c-.16.19.1.29.16.27.33-.07-.03-.43-.16-.27z"/>
        <path d="m50.56 5.34c-.19.08-.27.3-.19.49.07.17.26.26.43.21.62-.14.18-.84-.24-.7z"/>
        <path d="m51.55 7.42c.73 0 .4-.87-.05-.79-.22.04-.36.25-.31.47.04.18.19.31.36.32z"/>
        <path d="m53.03 7.79c.6-.15.31-1.02-.18-.87-.44.13-.24.91.18.87z"/>
        <path d="m56.41 6.38c.1.03.2.03.3 0 .54-.1.22-.77-.16-.69-.22.12-.31.4-.19.62.01.02.03.04.04.06z"/>
        <path d="m55.65 2.93c.55-.15-.23-.75-.37-.3-.08.25.26.33.37.3z"/>
        <path d="m56.06 4.96c.53-.12.13-.82-.23-.61s-.16.69.23.61z"/>
        <path d="m57.69 4.68c.49.07.61-.69.17-.73-.43-.03-.54.68-.17.73z"/>
        <path d="m53.63 5.9c.19-.02.33-.19.31-.38 0-.03 0-.06-.02-.08-.19-.7-1.08.62-.3.46z"/>
        <path d="m57.01 1.43c.17 0 .2-.05.21-.15.1-.66-.87.21-.21.15z"/>
        <path d="m57.54 6.29c-.08.2.01.42.21.5.07.03.14.03.21.02.89-.04-.16-1.3-.42-.52z"/>
        <path d="m54.53 7.77c.24-.04.4-.28.35-.52-.02-.13-.11-.25-.22-.31-.67-.27-.93.98-.13.82z"/>
        <path d="m54.72 1.32c.34-.23-.49-.39-.28 0 .08.07.2.07.28 0z"/>
        <path d="m54.52 4.17c.62-.06.19-.87-.2-.68-.16.13-.19.37-.06.54.06.08.16.13.26.14z"/>
        <path d="m55.4 6.42c.22-.01.41-.16.48-.37-.08-.29-.38-.46-.67-.39-.07.02-.14.05-.2.1-.14.17-.12.43.06.57.09.08.22.11.33.09z"/>
        <path d="m11.1 32.46c.14.15.37.16.52.02.08-.07.12-.17.12-.27.17-1.02-1.28-.26-.63.25z"/>
        <path d="m41.04 4.96c.17-.1.26-.5 0-.57-.54-.12-.48.86 0 .57z"/>
        <path d="m41.14 8.15c.08.19.23.29.53.16.19-.03.32-.2.3-.39v-.02c-.1-.63-1.04-.26-.83.25z"/>
        <path d="m41.07 3.21c.3-.17-.16-.43-.22-.18s.18.2.22.18z"/>
        <path d="m42.52 4.51c.17-.07.36-.49.09-.59-.43-.14-.55.76-.09.59z"/>
        <path d="m42.89 3.12c.51-.16-.13-.74-.29-.36-.06.12-.01.28.11.34.05.03.11.03.17.02z"/>
        <path d="m41.85 6.41c.15-.14.16-.39.02-.54-.03-.03-.05-.05-.09-.07-.5-.13-.4.97.07.61z"/>
        <path d="m48.42 4.05s.09-.02.13-.05c.56-.28-.49-.8-.45-.2.02.16.16.27.32.25z"/>
        <path d="m38.85 9.17c.24-.06.38-.31.31-.54-.06-.21-.25-.34-.47-.32-.47.08-.51 1.14.16.87z"/>
        <path d="m40.21 6.77c.18-.11.23-.35.12-.53-.09-.14-.26-.21-.42-.17-.37.16-.23 1.01.3.69z"/>
        <path d="m39.96 7.95c-.22.09-.33.34-.25.56 0 .02.02.04.03.06.09.15.29.2.44.11.22-.03.38-.24.34-.46v-.02c-.09-.22-.34-.33-.57-.25z"/>
        <path d="m39.81 3.43c.31-.19 0-.49-.23-.4-.23.1-.15.63.23.4z"/>
        <path d="m39.41 5.64c.09.02.18 0 .25-.06.43-.34-.39-.72-.48-.29-.03.16.07.32.23.35z"/>
        <path d="m46.36 6.15c.46-.12.42-.87-.06-.78s-.52.94.06.78z"/>
        <path d="m47.61 7.54c.24-.01.42-.22.41-.46s-.22-.42-.46-.41c-.49.1-.7 1.04.04.87z"/>
        <path d="m47.24 3.98c.31-.1.33-.62 0-.61-.33.02-.49.8 0 .61z"/>
        <path d="m48.12 6.03c.18-.1.25-.33.15-.51-.08-.14-.23-.21-.39-.19-.46.05-.43 1.05.24.69z"/>
        <path d="m47.82 2.33s.03 0 .05 0c.49-.13-.16-.46-.19-.16 0 .09.06.16.14.17z"/>
        <path d="m45.23 4.34c.09.09.22.12.33.08.65-.19 0-.82-.32-.54-.13.12-.13.33-.01.45z"/>
        <path d="m43.95 1.54s.07-.02.1-.04c.38-.21-.31-.59-.3-.14 0 .11.1.18.21.18z"/>
        <path d="m44.05 4.37c.13-.13.13-.35 0-.48-.08-.08-.2-.12-.31-.09-.31.1-.23.94.3.57z"/>
        <path d="m42.84 6.42c.11.18.35.23.53.12.02-.02.05-.03.07-.05.43-.29-.11-.79-.48-.59-.18.11-.23.35-.12.53z"/>
        <path d="m45.04 3.3c.62-.28-.4-.7-.38-.17 0 .17.1.29.38.17z"/>
        <path d="m44.61 5.97c.07 0 .14-.02.2-.07.17-.05.28-.21.25-.38 0-.22-.17-.39-.38-.4-.22 0-.39.17-.4.38 0 .05 0 .1.03.15 0 .17.14.31.31.32z"/>
        <path d="m10.01 36.28c0-.56-.69-.43-.82-.17-.26.55.85.98.82.17z"/>
        <path d="m41.21 92.18c.21 0 .38-.17.38-.38s-.17-.38-.38-.38c-.63-.03-.46.76 0 .76z"/>
        <path d="m9.66 34.72c-.1.51.81.67.87.19.18-.65-.77-.69-.87-.19z"/>
        <path d="m53.98 91.56c.07-.19-.03-.4-.22-.46-.1-.04-.21-.02-.31.03-.77.34.39 1.07.53.43z"/>
        <path d="m9.72 28.17c-.06.17.04.36.21.42.17.05.34-.03.41-.19.17-.52-.52-.53-.62-.23z"/>
        <path d="m40.12 91.84c.1-.15.05-.36-.1-.46-.04-.02-.08-.04-.13-.05-.95-.21-.11 1.09.23.5z"/>
        <path d="m42.99 8.14c.21-.02.37-.21.35-.43 0-.03-.01-.07-.02-.1-.02-.21-.21-.37-.43-.35-.21.02-.37.21-.35.43 0 .03.01.07.02.1.02.21.21.37.43.35z"/>
        <path d="m36.49 89.68c.51.12.81-.87.14-.92s-.56.82-.14.92z"/>
        <path d="m10.18 63.53c.28.34.82-.11.81-.34-.01-.04-.04-.08-.08-.1-.27-.59-1.09 0-.73.43z"/>
        <path d="m9.58 31.25c-.02.21.14.4.35.42.05 0 .1 0 .15-.02.06-.08.09-.18.08-.29.1-.49-.47-.34-.57-.11z"/>
        <path d="m64.83 7s.08.03.13.03c.83.05 0-1.18-.3-.48-.08.17 0 .37.17.45z"/>
        <path d="m38.31 91.02c-.02.06-.03.13-.02.19 0 .38.76.36.82-.1.03-.16-.08-.31-.24-.34-.02 0-.04 0-.06 0-.21-.07-.44.04-.51.25z"/>
        <path d="m38.38 6.53c-.12.18-.07.43.11.55.09 0 .17-.05.23-.11.43-.25-.07-.69-.35-.44z"/>
        <path d="m9.44 33.2c.27.11.49.05.51-.34.09-.92-1.36-.05-.51.34z"/>
        <path d="m60.09 90.61c.1-.21 0-.47-.21-.56-.14-.06-.29-.05-.42.03-.57.38.34 1.03.62.53z"/>
        <path d="m63.87 4.37c.15 0 .25 0 .25-.2 0-.5-.72.15-.25.2z"/>
        <path d="m64.57 10.15c.73.1.46-.76.1-.87-.24-.03-.46.15-.48.39s.15.46.39.48z"/>
        <path d="m64.41 3.55s.07.01.1 0c.43 0 0-.66-.22-.25-.04.1.02.21.12.24z"/>
        <path d="m59.2 92.45s.06-.02.09-.03c.44-.16.27-.86-.23-.67-.19.04-.32.22-.28.42s.22.32.42.28z"/>
        <path d="m8.72 37.44c-.08.44.87.78.87.09s-.76-.48-.87-.09z"/>
        <path d="m8.93 40.6c.04-.07.06-.16.05-.25 0-1.03-1.45.09-.57.38.18.11.42.05.52-.13z"/>
        <path d="m44.55 7.79c.65-.27 0-.95-.4-.87-.52.21-.16 1.11.4.87z"/>
        <path d="m8.54 38.89c-.1.5.87.87.87.14-.04-.25-.27-.43-.52-.39-.15.02-.28.12-.35.25z"/>
        <path d="m7.75 41.65s0 .06 0 .1c0 .55.92.59.96.09.05-.26-.12-.52-.39-.57-.26-.05-.52.12-.57.39z"/>
        <path d="m62.84 9.6c.62.09.87-.88.22-.95-.36.07-.59.42-.51.78 0 .03.01.06.02.09.07.06.17.1.27.09z"/>
        <path d="m61.12 7.12c.25.01.46-.18.47-.43 0-.04 0-.08-.01-.13-.32-.71-1.33.55-.46.56z"/>
        <path d="m62.01 6.02h.02c.7-.14-.35-1.03-.45-.35.02.21.21.37.43.35z"/>
        <path d="m60.5 3.99c.51 0 .21-.62-.11-.52s-.1.53.11.52z"/>
        <path d="m61.98 2.96c.17-.05.12-.16.05-.21-.2-.13-.36.32-.05.21z"/>
        <path d="m62.02 7.51c.02.2.21.34.41.32h.03c.2.05.41-.07.47-.28.01-.04.02-.09.01-.14 0-.45-.94-.5-.91.1z"/>
        <path d="m61.92 3.53c-.23.23.07.46.26.43.54-.06 0-.67-.26-.43z"/>
        <path d="m58.86 4.63c-.05.15.03.31.18.36.05.02.1.02.15 0 .82-.03-.13-1.13-.33-.37z"/>
        <path d="m59.06 3.65c.5-.07 0-.69-.24-.4-.24.3.17.42.24.4z"/>
        <path d="m60.36 8.87c.58 0 .79-1.02.08-.97-.39.03-.67.95-.08.97z"/>
        <path d="m10.71 33.06c-.22-.07-.46.04-.53.26-.12.38.64.95.79.27.07-.22-.04-.46-.26-.53z"/>
        <path d="m59.56 7.1c.23.01.43-.16.44-.39.01-.19-.11-.37-.3-.42-.35-.04-.71.77-.14.82z"/>
        <path d="m60.5 5.58h.03c.87.07-.13-1.14-.31-.39-.03.18.1.36.28.39z"/>
        <path d="m56 8.02c.74-.15.34-.86-.08-.87-.49 0-.66 1.02.08.87z"/>
        <path d="m50.33 7.44c.7-.23.16-.82-.16-.79-.37.04-.55 1.02.16.79z"/>
        <path d="m46.01 7.76c.22-.02.39-.21.37-.43 0-.01 0-.03 0-.04-.08-.62-1.04-.36-.88.25.05.18.16.31.51.22z"/>
        <path d="m48.83 7.49c.62-.19.26-.9-.18-.82-.38.08-.44 1.02.18.82z"/>
        <path d="m62.98 3.17c.07.1.19.15.3.13.7 0-.42-.77-.3-.13z"/>
        <path d="m57.29 8.16c1.22.03-.33-1.6-.49-.52-.06.23.08.46.31.51.06.01.12.02.17 0z"/>
        <path d="m63.76 7.18c-.37 0-.62.77-.04.82s.46-.79.04-.82z"/>
        <path d="m63.76 6.35c.18-.11.23-.34.13-.51-.04-.07-.11-.13-.19-.16-.42-.04-.48.88.06.67z"/>
        <path d="m62.23 8.75c.02-.24-.16-.45-.39-.47-.5-.05-.73.87-.08.87.24.02.45-.16.47-.39z"/>
        <path d="m58.52 8.36s.09.02.13.02c.21.07.44-.05.51-.26v-.02c.1-.23 0-.49-.24-.59s-.49.01-.59.24c-.02.05-.03.1-.03.15-.07.18.03.39.21.46z"/>
        <path d="m25.08 9.84c.23-.3-.17-.46-.35-.3s.07.69.35.3z"/>
        <path d="m18.83 16.5c.11 0 .13-.05.16-.15.14-.49-.68.03-.16.15z"/>
        <path d="m18.59 12.92s.05-.04.07-.07c.11-.3-.32-.16-.25 0 .03.07.12.1.18.07z"/>
        <path d="m19.68 18.24c.28-.38-.32-.67-.52-.41s.31.69.52.41z"/>
        <path d="m18.6 19.27c.06-.03.1-.07.13-.13.53-.7-.93-.57-.49 0 .06.13.22.19.36.13z"/>
        <path d="m18.94 20.39c.21.23.45.29.62 0 .43-.86-1.24-.71-.62 0z"/>
        <path d="m18.98 76.86c-.61-.39-.87.56-.52.8s1.11-.43.52-.8z"/>
        <path d="m20.08 15.35s.06-.08.07-.13c.26-.56-.87-.32-.48.13.11.11.29.11.41 0z"/>
        <path d="m17.87 79.27c.3.29 1.01-.2.55-.57-.16-.15-.41-.15-.56.01s-.15.41.01.56z"/>
        <path d="m18.13 75.87c-.51-.31-.87.51-.54.78s1.17-.44.54-.78z"/>
        <path d="m19.57 79.82c-.21-.09-.45 0-.53.22-.07.16-.03.34.1.46.36.3 1.06-.38.43-.68z"/>
        <path d="m19.43 83.24c.3.09.63-.48.24-.67-.54-.28-.59.59-.24.67z"/>
        <path d="m18.19 21.62c.16.06.33-.02.39-.17v-.02c.14-.14.14-.36 0-.5-.19-.11-.44-.04-.55.15s-.04.44.15.55z"/>
        <path d="m23.56 16.55c.43-.44-.31-.87-.59-.59s.25.94.59.59z"/>
        <path d="m22.71 13.5c.35-.45-.34-.6-.52-.32-.09.14-.04.33.1.42s.33.04.42-.1z"/>
        <path d="m23.1 11.5c.27-.41-.43-.49-.49-.13s.36.31.49.13z"/>
        <path d="m24.08 10.63c.06 0 .12-.03.16-.08.24-.36-.45-.44-.43-.14.01.13.13.23.26.22z"/>
        <path d="m24.04 12.75c.09-.15.04-.35-.11-.44-.12-.07-.28-.06-.38.04-.21.26.21.87.49.4z"/>
        <path d="m22.09 15.82c.16-.12.19-.33.07-.49s-.33-.19-.49-.07c-.31.2-.03 1.07.42.56z"/>
        <path d="m20.02 19.45c.32.33.39.14.55-.15.14-.12.16-.34.03-.48-.01-.01-.02-.02-.03-.03-.42-.4-.87.33-.55.66z"/>
        <path d="m20.93 14.23c.11-.01.2-.09.23-.2.42-.69-.91.02-.23.2z"/>
        <path d="m20.44 17.19c.11 0 .2-.07.24-.17.15-.14.16-.38.02-.53l-.02-.02c-.46-.47-.8.6-.24.72z"/>
        <path d="m21.06 10.66c-.18-.67-.61.36 0 0z"/>
        <path d="m20.93 17.8c-.32.37.26 1.06.56.49.18-.33-.24-.87-.56-.49z"/>
        <path d="m15.46 25.1c.14.05.28.03.37-.23.07-.2.12-.36-.19-.49s-.68.56-.18.72z"/>
        <path d="m5.69 43.05c.04-.19-.09-.38-.28-.42-.05 0-.1 0-.15 0-.43.07-.34.81.16.77.16 0 .29-.05.27-.36z"/>
        <path d="m5.81 41.43s0-.09-.02-.12c-.13-.75-1.06.36-.29.39.16.01.29-.11.31-.27z"/>
        <path d="m5.02 51.26c.19.03.37-.11.4-.31 0-.06 0-.13-.03-.19-.23-.89-1.16.45-.37.49z"/>
        <path d="m4.7 47.48c-.2.06-.31.28-.25.48.05.16.2.27.36.27.18 0 .32-.15.32-.32 0-.05-.01-.11-.04-.15-.01-.17-.16-.29-.32-.28-.02 0-.04 0-.07.01z"/>
        <path d="m5.06 49.46c-.15-.52-.74-.14-.65.18s.79.3.65-.18z"/>
        <path d="m4.64 46.78c.16-.1.21-.31.11-.48-.32-.78-.92.82-.11.48z"/>
        <path d="m12.71 27.99c-.16.38.68.95.8.27.02-.24-.16-.45-.4-.47-.16-.01-.32.06-.4.2z"/>
        <path d="m12.29 29.7c.15.18.42.19.6.04.06-.05.11-.13.13-.2.05-.15 0-.31-.14-.39-.39-.3-.94.19-.59.56z"/>
        <path d="m13.07 25.84c-.2-.08-.42.02-.5.21v.03c-.11.32.52.87.71.25.08-.2-.02-.42-.21-.5z"/>
        <path d="m6.07 38.69c-.04-.38-.71-.42-.68 0 .02.27.72.48.68 0z"/>
        <path d="m6.09 40.42c-.04-.62-.73-.36-.76 0 0 .41.8.62.76 0z"/>
        <path d="m17.05 22.19c-.07.13-.07.28 0 .41.09.19.31.28.51.19.1-.04.17-.13.21-.23.13-.16.11-.39-.05-.53-.01-.01-.03-.02-.04-.03-.22-.12-.49-.03-.61.19z"/>
        <path d="m16.87 23.7c.09-.16.04-.37-.13-.46h-.01c-.54-.35-.84.72-.2.77.18 0 .32-.13.34-.3z"/>
        <path d="m16.46 75.76c.32.17.69-.35.68-.49-.02-.14-.12-.26-.25-.32-.57-.36-.84.57-.43.81z"/>
        <path d="m15.83 73.54c-.21.16-.24.46-.08.67s.46.24.67.08c.22-.18.25-.5.07-.72l-.02-.03c-.19-.14-.45-.14-.64 0z"/>
        <path d="m4.67 43.99s-.1 0-.14.02c-.49.14 0 1.01.41.71.09-.09.12-.23.08-.35.01-.2-.14-.37-.34-.39z"/>
        <path d="m17.51 15.83c.05-.09.02-.2-.07-.25-.08-.05-.19-.02-.25.06-.25.22.25.58.31.19z"/>
        <path d="m20.16 78.63c.13-.22.06-.49-.16-.62-.63-.36-.71.57-.46.78.22.13.49.06.62-.16z"/>
        <path d="m7.58 43.23c.04.26.29.44.55.39s.44-.29.39-.55c-.1-.71-.97-.28-.95.16z"/>
        <path d="m23.96 13.72c-.37.23 0 1.03.38.59.15-.13.16-.36.03-.5-.1-.11-.27-.15-.41-.09z"/>
        <path d="m16.69 18.17c.07.01.13-.03.15-.1.32-.5-.68-.1-.15.1z"/>
        <path d="m17 19.94c.05.16.22.25.38.2.1-.03.17-.11.2-.2.15-.51-.69-.35-.58 0z"/>
        <path d="m16.87 14.45c.08.01.16-.04.17-.12 0-.01 0-.03 0-.04.02-.3-.51.08-.17.16z"/>
        <path d="m34.54 8.09c-.03.14.07.28.21.3h.13c.51-.24-.27-.75-.34-.3z"/>
        <path d="m32.83 5.9c.13-.04.21-.17.18-.31 0-.03-.02-.06-.04-.08-.36-.53-.68.64-.14.39z"/>
        <path d="m31.07 87.42c.38.05.48-.5.41-.62-.08-.11-.2-.17-.33-.16-.62-.15-.69.7-.08.79z"/>
        <path d="m30.16 85.94c-.21-.11-.46-.05-.61.13-.54.7.57 1.03.87.5.13-.19.07-.45-.12-.58-.04-.03-.09-.05-.14-.06z"/>
        <path d="m33.7 9.08c.14-.15.12-.39-.03-.53-.03-.03-.08-.06-.12-.07-.77-.24-.46 1.4.15.6z"/>
        <path d="m33.56 10.82s.06-.04.08-.06c.21-.07.32-.3.25-.51-.23-.68-1.09-.09-.79.43.09.16.29.23.46.14z"/>
        <path d="m21.35 80.96c.38.17.87-.49.41-.76-.21-.11-.47-.03-.58.17s-.03.47.17.58z"/>
        <path d="m11.32 67.36c.23.31 1.14-.09.7-.56-.43-.47-.98.2-.7.56z"/>
        <path d="m28.5 86.19c.48.16.87-.76.23-.87s-.56.74-.23.87z"/>
        <path d="m21.94 17.09c-.23.33.27.85.58.49.42-.48-.36-.82-.58-.49z"/>
        <path d="m23.06 14.8c.06-.17-.03-.36-.2-.42-.11-.04-.23-.02-.31.05-.2.22.28.85.51.37z"/>
        <path d="m22.45 80.78c-.18.19-.18.49 0 .68.19.18.49.18.68 0 .04-.04.07-.08.09-.13.12-.17.09-.41-.08-.53-.04-.03-.1-.05-.15-.07-.17-.11-.4-.09-.54.06z"/>
        <path d="m33.61 7.48c.16-.12.3-.19.12-.42s-.73.13-.49.43c.09.1.16.15.37 0z"/>
        <path d="m37.13 7.26c-.01.21.15.39.36.4.1 0 .19-.03.26-.09.56-.48-.61-.97-.62-.31z"/>
        <path d="m37.19 4.22c.14-.05.21-.2.16-.33 0-.02-.02-.05-.04-.07-.3-.43-.63.68-.12.4z"/>
        <path d="m36.49 9.85c.18-.15.21-.41.07-.6-.07-.09-.17-.14-.28-.16-.69.03-.45 1.24.22.76z"/>
        <path d="m37.44 8.67c-.43.23-.08 1.05.4.75s-.03-.91-.4-.75z"/>
        <path d="m37.76 5.85s.02-.02.03-.03c.23-.25-.43-.2-.26 0 .06.07.16.08.23.03z"/>
        <path d="m36.16 6.32c.39-.3-.53-.38-.18 0 .11.14.15.03.18 0z"/>
        <path d="m34.67 6.11c.48-.24-.1-.87-.36-.48-.09.15-.05.35.1.44.08.05.17.06.26.04z"/>
        <path d="m33.69 4.47s.05-.03.07-.05c.33-.33-.45-.47-.32-.05.04.1.15.14.25.1z"/>
        <path d="m38.5 4.65c.47-.36-.48-.63-.46-.15.02.24.33.25.46.15z"/>
        <path d="m35.91 8.32s.08-.06.1-.1c.57-.53-.87-.73-.55 0 .09.15.29.2.44.1z"/>
        <path d="m34.86 9.51c-.51.24-.1 1.16.41.73.34-.27.1-.97-.41-.73z"/>
        <path d="m25.07 12.69s-.06.06-.08.1c-.23.38.36.73.6.49.16-.14.17-.39.03-.55s-.39-.17-.55-.03z"/>
        <path d="m27.44 11.71c.07-.01.13-.04.18-.09.4-.49-.61-.69-.56-.18.03.18.2.3.38.27z"/>
        <path d="m26.79 9.06s.08-.09.09-.16c.1-.21-.21-.36-.39-.23-.11.08-.12.24-.04.34.08.11.24.12.34.04z"/>
        <path d="m27.81 10.3c.5-.32-.19-.57-.32-.47s0 .66.32.47z"/>
        <path d="m29.26 12.13c-.32.22 0 1 .42.67s-.13-.82-.42-.67z"/>
        <path d="m25.98 14.82c.33-.33-.13-.96-.5-.72s.12 1.1.5.72z"/>
        <path d="m29.3 9.44c.27-.27-.17-.48-.34-.27-.07.1-.04.23.06.3.09.06.21.05.28-.03z"/>
        <path d="m12 30.16c-.17-.04-.34.02-.44.15-.26.43.62 1.15.79.38.05-.24-.1-.48-.35-.54z"/>
        <path d="m24.9 11.69c.02.16.16.27.32.25.08 0 .15-.05.19-.11.48-.52-.58-.62-.51-.14z"/>
        <path d="m24.24 15c-.48.3.14 1.09.5.61.13-.18.09-.44-.09-.57-.12-.09-.28-.1-.41-.04z"/>
        <path d="m26.24 10.62c.3-.36-.45-.44-.43-.1.03.35.33.22.43.1z"/>
        <path d="m26.74 12.78c.08-.04.15-.11.2-.19.36-.44-.33-.7-.56-.42s.23.62.36.61z"/>
        <path d="m27.81 13.03c-.03.21.11.41.33.44.14.02.29-.04.37-.16.49-.55-.61-.88-.7-.29z"/>
        <path d="m31.98 7.86c.3-.34-.26-.58-.45-.37s.13.73.45.37z"/>
        <path d="m31.72 9.71c.38-.3-.12-.71-.37-.5s.04.76.37.5z"/>
        <path d="m31.8 10.53c-.21.11-.29.37-.18.58.15.19.42.22.61.07.14-.11.2-.3.15-.47-.11-.21-.37-.29-.58-.18z"/>
        <path d="m24.18 81.69c-.16-.16-.42-.16-.58 0-.01.01-.02.02-.03.03-.14.18-.14.43 0 .61.34.34 1.22-.27.61-.63z"/>
        <path d="m29.09 11.11c.11.12.3.18.53-.09.67-.78-1.15-.55-.53.09z"/>
        <path d="m27.36 14.05c.13-.17.09-.41-.08-.53-.12-.09-.29-.1-.43-.02-.34.24.15 1.02.5.56z"/>
        <path d="m29.61 5.82c.69-.12-.16-.53 0 0z"/>
        <path d="m31.01 9.79c-.16-.24-.87-.07-.8.3.02.2.19.34.39.32.08 0 .15-.04.2-.09.21-.09.3-.33.21-.54z"/>
        <path d="m30.58 8.4c.54-.53-.69-.61-.47-.06.09.17.3.25.47.06z"/>
        <path d="m30.73 12c.24-.03.41-.26.38-.5 0-.05-.03-.11-.05-.15-.18-.19-.48-.2-.67-.02-.09.08-.14.19-.15.3.03.24.26.41.5.38z"/>
        <path d="m31.03 6.94c.07-.11.03-.25-.07-.32-.03-.02-.06-.03-.09-.03-.45 0-.07.73.16.36z"/>
        <path d="m16.3 21.53c.19.04.28-.1.36-.3s.07-.32-.04-.43c-.4-.35-.91.56-.32.72z"/>
        <path d="m91.9 62.96c-.06-.2-.27-.31-.47-.24-.16.05-.26.19-.26.36 0 .6.81.31.73-.11z"/>
        <path d="m92.04 65.8c-.02-.18-.18-.31-.36-.29s-.31.18-.29.36c.02.56.69.34.64-.07z"/>
        <path d="m92.27 52.28c-.19-.08-.41 0-.49.2-.03.07-.04.14-.02.21.19.74 1.15-.17.51-.41z"/>
        <path d="m91.22 64.97c.12-.01.22-.09.27-.2.04-.26-.62-.57-.62-.1.02.18.17.31.35.29z"/>
        <path d="m90.78 61.37c.04-.21-.09-.41-.3-.45-.03 0-.07 0-.11 0-.16-.02-.31.09-.33.26v.07c-.05.18.06.37.24.42h.05c.21.04.41-.09.45-.3z"/>
        <path d="m89.98 64.17c.09-.21-.01-.46-.22-.54-.04-.01-.07-.02-.11-.03-.16-.07-.34 0-.41.15-.02.05-.03.11-.03.16-.08.18 0 .39.18.47.02 0 .03.01.05.02.21.09.46-.01.54-.22z"/>
        <path d="m92.56 25.93s.05-.04.06-.06c.23-.34-.68-.4-.36 0 .07.1.2.13.3.06z"/>
        <path d="m92.37 53.7c-.09-.19-.3-.29-.5-.26-.17.03-.28.2-.24.37 0 .02 0 .04.02.06.11.65.81.19.73-.16z"/>
        <path d="m91.71 61.31c-.12-.06-.27 0-.32.11-.02.04-.03.09-.02.14-.03.76.98-.03.35-.25z"/>
        <path d="m92.04 55.07c-.16-.16-.42-.15-.58.01-.1.1-.14.25-.1.39.1.84 1.15.04.68-.4z"/>
        <path d="m91.28 56.44c-.09.07-.15.18-.15.3-.07.2.03.43.24.5.04.01.07.02.11.02.76.1.36-1.13-.2-.82z"/>
        <path d="m91.07 58.15c.1.59.75.16.74-.1 0-.26-.83-.49-.74.1z"/>
        <path d="m91.23 59.41c-.17-.21-.48-.25-.69-.09-.03.09-.03.19 0 .29 0 .62.91.3.69-.2z"/>
        <path d="m91.65 35.05c-.22-.09-.47 0-.56.22 0 .09.05.16.1.2.31.48.74-.16.46-.43z"/>
        <path d="m89.41 65.62s.02-.04.03-.07c.1-.37-.62-.82-.72-.21 0 .29 0 .33.19.43.18.09.41.02.5-.16z"/>
        <path d="m90.26 32.95c.12.16.34.18.5.06.12-.09.17-.26.12-.4-.16-.3-.99-.16-.62.34z"/>
        <path d="m90.95 33.4c-.18.12-.23.36-.11.54.03.04.07.08.11.11.08.12.24.16.36.1.39-.16.2-1.06-.36-.75z"/>
        <path d="m91.01 37.75c-.25-.13-.55-.08-.74.12-.06.13-.03.29.06.4.36.62.98-.16.68-.52z"/>
        <path d="m90.13 37.4c.31.07.62-.12.69-.43 0-.04.01-.07.01-.11-.1-.49-1.26-.42-.87.29.02.1.08.19.16.25z"/>
        <path d="m91.33 31.01c-.15.09-.21.28-.12.44.01.02.03.05.05.07.55.69.78-.89.07-.5z"/>
        <path d="m89.73 28.38c-.1.11-.1.17.04.36.08.17.29.25.46.17.03-.01.06-.03.09-.06.32-.31-.3-.8-.59-.48z"/>
        <path d="m88.92 68.49c-.18-.05-.34-.04-.4.31-.07.17.01.35.17.43.45.19.72-.59.23-.74z"/>
        <path d="m88.86 66.79c.17-.36-.63-.93-.69-.27-.04.37.5.63.69.27z"/>
        <path d="m89.25 29.45c-.19.06-.3.26-.24.45.02.07.06.13.12.18.59.49.82-.87.12-.63z"/>
        <path d="m88.72 32.4c-.2.05-.32.26-.26.46.02.07.06.14.12.18.1.2.34.28.53.18.02 0 .03-.02.05-.03.22-.13.29-.41.16-.62-.12-.2-.38-.28-.59-.17z"/>
        <path d="m94.74 48.14c.17.4.48.09.43-.14-.06-.24-.61-.26-.43.14z"/>
        <path d="m94.58 35.16c.36.36.5-.55.05-.4-.2.06-.19.26-.05.4z"/>
        <path d="m94.91 36.11c.08.12.13.19.26.11.5-.31-.61-.64-.26-.11z"/>
        <path d="m93.73 38.68c.26.39.73-.07.55-.36s-.73.07-.55.36z"/>
        <path d="m94.51 30.15c.47.31.16-.73-.11-.26-.04.1 0 .21.09.25h.02z"/>
        <path d="m90.45 35.33c-.26-.15-.59-.11-.8.1-.06.12-.06.26 0 .37.36.69 1.13-.06.8-.48z"/>
        <path d="m94.76 44.68c.06.39.57.35.53 0s-.59-.37-.53 0z"/>
        <path d="m93.49 28.98c.43.42.26-.69-.06-.23-.11.16 0 .18.06.23z"/>
        <path d="m92.91 24.38c.5-.4-.49-.44 0 0z"/>
        <path d="m92.51 30.43c.36.52.66-.4.23-.45s-.27.39-.23.45z"/>
        <path d="m95.57 49.86c.28-.36-.59-.75-.38-.11.07.23.26.26.38.11z"/>
        <path d="m92.17 50.92c-.18 0-.33.16-.32.34 0 .05.01.1.03.14.23.96 1.3-.6.29-.48z"/>
        <path d="m93.19 37.28c.19.36.76.16.68-.18-.09-.35-.95-.33-.68.18z"/>
        <path d="m92.85 31.22c-.12.08-.15.25-.06.36.02.02.04.05.06.06.48.3.44-.71 0-.43z"/>
        <path d="m93.71 54.23c-.12-.04-.25.03-.29.16-.02.07 0 .14.03.2.23.39.73-.28.26-.36z"/>
        <path d="m93.78 49.79c-.19 0-.35.13-.36.32 0 .06.01.13.04.18.31.75 1.11-.46.31-.5z"/>
        <path d="m93.24 52.78c-.19-.03-.37.1-.4.29v.15c.16.93 1.26-.35.39-.43z"/>
        <path d="m92.9 56.34c.16 0 .29-.1.34-.25.1-.42-.71-.62-.69-.11 0 .2.16.36.35.36z"/>
        <path d="m94.07 51.6c.24-.36-.62-.67-.56-.2.03.18.38.45.56.2z"/>
        <path d="m94.32 47.09s-.01-.07-.02-.1c-.1-.29-.76-.3-.65.16.02.19.18.32.37.31.19-.02.32-.18.31-.37z"/>
        <path d="m94.25 57.52c-.13-.05-.28.02-.33.15-.02.06-.02.13 0 .19.15.62.83-.2.33-.35z"/>
        <path d="m94.55 40.43s.07-.04.1-.07c.29-.43-.73-.53-.5-.08.07.15.25.22.4.15z"/>
        <path d="m94.91 41.35c-.23-.32-.69.16-.61.37.23.49.88 0 .61-.37z"/>
        <path d="m94.94 42.82c-.16-.06-.34.02-.4.18-.04.09-.03.19.02.27.3.66.87-.3.38-.45z"/>
        <path d="m93.68 47.97c-.19 0-.33.17-.32.36 0 .04.01.08.03.11.27.95 1.32-.62.3-.47z"/>
        <path d="m90.03 62.18c-.15-.05-.3.03-.35.18 0 .03-.01.06-.01.09-.06.18.04.38.23.44.03 0 .06.01.09.02.45.06.51-.63.05-.72z"/>
        <path d="m83.32 23.14c.17-.17.19-.44.04-.62-.31-.31-1.15.16-.69.61.18.18.47.19.65.02z"/>
        <path d="m83.43 77.52c.14-.36-.43-.56-.54-.51-.08.07-.13.15-.16.25-.23.53.54.69.69.26z"/>
        <path d="m82.56 76.73c.23-.29-.3-1.02-.56-.48-.16.32.25.83.56.48z"/>
        <path d="m85.49 71.55c-.15.56.64.56.77.24s-.63-.79-.77-.24z"/>
        <path d="m90.2 31.13c-.21-.37-.99-.13-.64.38s.82-.03.64-.38z"/>
        <path d="m81.82 22.16s.05.04.08.06c.16.17.43.2.62.06.62-.45-.29-1.12-.71-.57-.12.13-.12.33 0 .45z"/>
        <path d="m83.54 24.49c.21.14.49.09.63-.12.1-.15.1-.34 0-.5-.26-.3-1.22.16-.63.62z"/>
        <path d="m85.04 22.91c-.19.02-.33.19-.31.38.01.12.09.23.2.28.62.43.68-.81.11-.66z"/>
        <path d="m84.93 25.76s.04-.03.06-.05c.19-.17.2-.45.04-.64-.16-.18-.43-.2-.62-.05-.18.1-.25.33-.15.52.03.06.09.11.15.15.12.17.36.2.52.08z"/>
        <path d="m84.37 76.37c.08-.3-.47-.57-.62-.34-.3.47.49.82.62.34z"/>
        <path d="m83.75 74.31c-.04.23.11.44.34.48.15.02.29-.03.39-.14.3-.47-.56-1.04-.73-.34z"/>
        <path d="m83.75 75.4c-.04-.26-.26-.46-.53-.46-.1.05-.18.15-.2.26-.27.58.62.67.73.2z"/>
        <path d="m86.03 76.46c-.05.11-.11.18.06.28.41.22.4-.59-.06-.28z"/>
        <path d="m96.69 47.7s.12.04.16 0c.03-.04.04-.09.01-.13-.04-.09-.33 0-.17.14z"/>
        <path d="m96.48 43.7c-.06.05-.08.14-.03.21 0 .01.02.02.03.03.27.21.23-.45 0-.23z"/>
        <path d="m98.12 44.2c-.06-.13-.39-.12-.29.15s.35 0 .29-.15z"/>
        <path d="m98.61 46.82c.16-.33-.45-.32-.26 0 .07.06.2.12.26 0z"/>
        <path d="m96.38 45.33c0 .08.16.19.23.07.06-.12-.35-.32-.23-.07z"/>
        <path d="m95.36 39.12c.04.15.12.24.3.16.49-.22-.47-.69-.3-.16z"/>
        <path d="m95.01 37.67c.11.06.26.02.32-.09.03-.05.04-.12.02-.18-.14-.25-.7 0-.34.27z"/>
        <path d="m85.81 73.89c-.12.04-.2.14-.22.26-.18.65.81.42.67-.05-.06-.18-.26-.28-.44-.21z"/>
        <path d="m84.95 73.2c.14.06.3.03.4-.08.25-.32-.39-.87-.58-.39-.08.18 0 .39.18.47z"/>
        <path d="m96.08 42.26s.02.07.05.1c.34.56.77-.55.16-.43-.15.04-.24.19-.2.34z"/>
        <path d="m96.09 33.6c0-.33-.52-.18-.3.05s.3.14.3-.05z"/>
        <path d="m82.6 19.55c-.36-.16-.56.4-.29.6.48.34.67-.42.29-.6z"/>
        <path d="m93.66 45.36c-.1-.34-.95-.38-.73.19.16.4.85.32.73-.19z"/>
        <path d="m92.91 42.13c-.16.03-.27.18-.24.34 0 .04.02.08.05.12.36.76.91-.6.19-.46z"/>
        <path d="m93.91 43.53c-.15-.11-.36-.08-.47.07-.06.09-.09.2-.06.3.23.47.75-.09.53-.36z"/>
        <path d="m92.13 47.42s.03 0 .04 0c.47-.05.36-.87-.13-.87-.16-.03-.31.07-.35.23-.01.06 0 .11.02.17-.01.24.17.45.42.47z"/>
        <path d="m93.15 40.75c-.26.06-.39.24-.21.56.43.75 1.02-.73.21-.56z"/>
        <path d="m92.43 49.4c-.22-.05-.44.09-.49.31-.01.06-.01.12 0 .18.2.98 1.46-.36.49-.49z"/>
        <path d="m85.75 26.96c.71-.29.06-1.09-.4-.87-.2.06-.31.28-.25.48.02.06.05.11.09.15.1.21.34.31.56.23z"/>
        <path d="m89.18 34.55c.33.44 1.12-.1.61-.49-.24-.21-.93.04-.61.49z"/>
        <path d="m90.76 39.59c.08.21.31.31.52.23.15-.06.26-.21.26-.37-.04-.56-1.15-.56-.77.14z"/>
        <path d="m91.04 41.32c.13.24.68.37.76 0 .16-.63-1.1-.65-.76 0z"/>
        <path d="m92.04 37.91c-.25.11-.23.2-.16.39.03.2.21.34.41.31.09-.01.16-.05.22-.12.11-.19.05-.43-.14-.55-.1-.06-.22-.07-.33-.04z"/>
        <path d="m91.37 42.71c.09.19.33.28.52.18.12-.06.2-.17.22-.29 0-.59-1.09-.51-.74.11z"/>
        <path d="m92.22 48.64c.18-.05.3-.22.28-.41-.01-.22-.2-.39-.42-.37-.22.01-.39.2-.37.42 0 .03 0 .06.02.09.06.21.29.33.5.27z"/>
        <path d="m88.11 30.21c-.18-.56-1.25-.2-.73.41.37.46.82-.11.73-.41z"/>
        <path d="m88.08 27.37c.1-.12.13-.28.06-.42-.23-.38-1.13 0-.6.45.16.14.4.13.54-.03z"/>
        <path d="m87.33 68.61c-.17-.05-.33-.04-.44.28-.1.19-.04.44.16.55.57.33.87-.63.29-.82z"/>
        <path d="m86.69 70.64c.18.04.36-.04.45-.2.17-.4-.63-.95-.78-.3-.05.23.1.45.33.5z"/>
        <path d="m86.19 27.27c-.23.03-.4.25-.36.48.01.1.07.2.15.27.73.72.97-.93.22-.75z"/>
        <path d="m92.5 35.61s.03.04.04.06c.34.54.65-.13.53-.36-.08-.16-.27-.22-.43-.14s-.22.27-.14.43z"/>
        <path d="m91.4 43.82c0 .06.02.13.05.18.21.69.92.21.81-.26-.06-.21-.27-.34-.49-.31-.21 0-.38.18-.37.39z"/>
        <path d="m87.96 31.91c.49.49.81-.36.62-.64-.15-.2-.43-.24-.63-.09s-.24.43-.09.63c.03.04.07.08.11.1z"/>
        <path d="m92.35 39.1c-.19.06-.3.27-.24.46.01.04.03.07.05.11.49.89 1.15-.93.18-.56z"/>
        <path d="m92.77 34.08c.45.47.61-.84 0-.57-.16.11-.2.32-.09.48.02.04.05.07.09.09z"/>
        <path d="m92.36 45.52c.05-.24-.11-.48-.35-.53s-.48.11-.53.35c-.02.11 0 .23.06.33.18.65.87.16.82-.15z"/>
        <path d="m69.75 7.45c.7.13.2-.75-.16-.51-.36.23-.11.46.16.51z"/>
        <path d="m75.27 7.83c.11-.04.17-.16.13-.27s-.16-.17-.27-.13-.17.16-.13.27c.02.06.07.11.13.13.04.02.09.02.14 0z"/>
        <path d="m74.77 11.27c.11.01.22-.07.23-.18.01-.08-.03-.16-.09-.2-.23-.06-.43.33-.14.38z"/>
        <path d="m74.68 5.5c-.09 0-.24.13-.09.16.16.03.19-.1.09-.16z"/>
        <path d="m72.47 6.54s.02 0 .04 0c.72 0-.3-.71-.31-.22.01.14.14.24.28.22z"/>
        <path d="m74.08 9.53c.15.08.34.02.42-.13s.02-.34-.13-.42c-.02 0-.03-.02-.05-.02-.28-.08-.66.42-.24.57z"/>
        <path d="m75.55 14.45c.59.26.77-.56.36-.77-.42-.21-.87.52-.36.77z"/>
        <path d="m73.15 14.58c.68.23.69-.71.34-.87-.36-.16-1.05.6-.34.87z"/>
        <path d="m72.54 13.11c-.13-.07-.29-.08-.42-.01-.4.23-.42.78.08.87.21.06.43-.05.5-.25.12-.21.05-.48-.16-.6z"/>
        <path d="m73.59 11.24c.56.18.23-.61-.1-.43-.32.18-.1.36.1.43z"/>
        <path d="m76 15.45c-.26-.03-.49.14-.53.4-.02.16.04.31.15.41.62.35.96-.65.37-.82z"/>
        <path d="m73.29 12.61c.21.06.43-.06.5-.27.05-.18-.02-.37-.18-.46-.41-.16-.81.54-.31.73z"/>
        <path d="m76.36 9.44c.43.1.11-.5-.09-.37s-.07.31.09.37z"/>
        <path d="m76.16 12.61h.03c.42.1.32-.42.08-.48-.13-.03-.26.06-.29.19s.06.26.19.29z"/>
        <path d="m78.5 82.99c-.05-.2-.26-.32-.46-.27-.08.02-.15.07-.2.14-.36.56.68.62.66.13z"/>
        <path d="m78.16 80.32c-.12.16-.09.38.06.5.12.09.28.1.41.02.34-.29-.15-.97-.47-.52z"/>
        <path d="m77.76 16.16c.16.17.42.17.59 0 .17-.16.17-.42 0-.59-.35-.35-1.13.21-.6.58z"/>
        <path d="m77.78 81.42c.05-.18-.05-.37-.23-.42-.13-.04-.27 0-.36.11-.4.51.47.72.59.3z"/>
        <path d="m78.1 17.15c-.43-.26-.87.49-.51.77.61.46.95-.51.51-.77z"/>
        <path d="m77.9 11.48c-.14.05-.21.21-.16.35.03.07.08.13.16.16.57.23.43-.73 0-.5z"/>
        <path d="m78.16 8.71c.19.05.23 0 .21-.12s-.54.03-.21.12z"/>
        <path d="m76.83 17.33c.6.29.8-.57.41-.8s-1.05.49-.41.8z"/>
        <path d="m76.42 10.49c.13.04.26-.04.3-.17.02-.06.01-.12-.01-.17-.29-.42-.75.22-.29.34z"/>
        <path d="m76.78 15.37c.62.21.49-.73.04-.74s-.46.61-.04.74z"/>
        <path d="m77.92 9.87c.33.07.21-.4 0-.45s-.34.39 0 .45z"/>
        <path d="m77.56 13.72c.71.23.1-.96-.24-.41-.12.19-.03.31.24.41z"/>
        <path d="m72.46 8.45c.01.12.12.21.24.19h.01c.75.04-.25-.9-.25-.19z"/>
        <path d="m91.4 36.67-.02.02c-.06.13-.04.28.07.37.32.54.87-.05.6-.44-.19-.17-.48-.15-.65.05z"/>
        <path d="m68.04 8.2c.81.11.23-1.03-.21-.62-.15.11-.19.32-.09.47.07.1.18.15.29.15z"/>
        <path d="m67.63 9.48c.07.04.16.05.24.03.87 0-.06-1.33-.38-.5-.09.17-.03.38.14.47z"/>
        <path d="m71.88 11.57c.05.1.15.16.26.17.76.23.31-.96-.12-.63-.16.09-.23.29-.14.46z"/>
        <path d="m69.18 10.68c.21.09.46 0 .57-.2.04-.28-.16-.54-.44-.58-.12-.02-.25.01-.35.08-.16.15-.18.4-.03.56.06.07.15.12.25.13z"/>
        <path d="m68.27 11.69c.18.11.42.04.52-.14 0-.01.01-.02.02-.03.14-.18.11-.43-.07-.57-.05-.04-.1-.06-.16-.08-.39-.1-.94.65-.31.82z"/>
        <path d="m69.34 5.15c.36 0 .1-.46-.1-.33s.03.32.1.33z"/>
        <path d="m66.24 2.24c.08-.04.11-.13.07-.21-.02-.05-.07-.08-.12-.09-.18-.02-.18.41.05.3z"/>
        <path d="m66.03 10.52c.17.05.36-.03.44-.18.38-.74-.87-.87-.87-.18 0 .16.04.31.43.36z"/>
        <path d="m66.69 7.59c.69 0 .17-1.1-.25-.67-.15.15-.16.4 0 .55.07.07.16.11.26.12z"/>
        <path d="m66.76 10.75c.05.15.18.26.34.29.75.15.49-1.08-.07-.87-.23.08-.36.34-.27.58z"/>
        <path d="m66.79 5.9c.16.03.31-.07.34-.22.03-.16-.07-.31-.22-.34-.23-.04-.52.51-.12.56z"/>
        <path d="m68.26 6.59c.49 0 .25-.68-.06-.55s-.26.53.06.55z"/>
        <path d="m65.14 5.04c.17.06.35-.04.41-.2.02-.05.02-.11.01-.16-.12-.5-1.02.24-.42.36z"/>
        <path d="m66.3 3.58s-.06-.06-.11-.05c-.1 0-.11.31.07.21.05-.03.07-.1.04-.16z"/>
        <path d="m64.77 8.17c-.14.13-.15.35-.01.49.06.07.15.1.24.11.84.13.18-.99-.23-.6z"/>
        <path d="m71.95 9.91c.32 0 .08-.38-.09-.3s.03.3.09.3z"/>
        <path d="m67.99 87.86c.1-.21 0-.47-.21-.56-.13-.06-.27-.05-.39.02-.59.42.31 1.09.61.54z"/>
        <path d="m66.56 9.06c.47.04.57-1.04 0-.91-.38.09-.47.87 0 .91z"/>
        <path d="m69.67 11.47c-.27-.05-.53.12-.58.39-.03.18.03.36.17.48.71.35.88-.69.41-.87z"/>
        <path d="m69.59 8.51s.06.01.1 0c.18.05.37-.06.41-.24.02-.09.01-.18-.03-.26-.28-.49-.88.23-.48.49z"/>
        <path d="m70.59 10.96c.71.25.7-.8.16-.87-.24.05-.43.24-.49.48-.02.2.09.3.33.39z"/>
        <path d="m70.52 12.73c-.08.18 0 .39.17.47.03.01.06.02.1.03.19.12.45.07.58-.11.49-.64-.6-1.14-.85-.39z"/>
        <path d="m70.57 9.25s.03 0 .05 0c.87.23 0-1.2-.23-.31-.03.13.05.27.18.31z"/>
        <path d="m67.91 4.69s.08.06.13.05c.53.04-.15-.52-.13-.05z"/>
        <path d="m86.64 29.18c.43.45.96-.26.67-.6-.3-.34-1.11.16-.67.6z"/>
        <path d="m86.5 25.45c-.21.11-.29.38-.17.59.03.06.07.1.12.14.65.43.81-1.08.05-.73z"/>
        <path d="m86.65 24.27c-.32-.2-.77.28-.46.56.15.14.38.13.52-.02s.13-.38-.02-.52c-.01 0-.02-.02-.03-.03z"/>
        <path d="m86.52 18.19c.26.1.14-.3 0-.23s-.04.21 0 .23z"/>
        <path d="m87.7 24.8c.43.45.65-.51.2-.49s-.2.44-.2.49z"/>
        <path d="m88.05 17.63c-.11 0-.09.23 0 .26.24.11.11-.27 0-.26z"/>
        <path d="m84.41 19.79c.14.11.34.08.44-.06.11-.14.08-.34-.06-.44-.25-.3-.93.16-.38.5z"/>
        <path d="m85.22 21.02c.52.36.57-.56.12-.55-.17.05-.3.2-.32.37.05.08.12.14.2.17z"/>
        <path d="m86.58 20.66c.38.14.2-.49 0-.44s-.21.38 0 .44z"/>
        <path d="m84.95 18.56c.12-.1.15-.28.05-.4 0 0-.02-.02-.03-.03-.21-.18-.69.11-.43.38.1.12.28.15.4.05z"/>
        <path d="m86.06 19.06c-.27 0-.11.3-.05.34.3.17.3-.36.05-.34z"/>
        <path d="m85.79 22.23c.3.11.17-.36 0-.34s-.14.29 0 .34z"/>
        <path d="m87.5 22.28c.53.3.43-.73 0-.48-.13.08-.18.25-.1.38.02.04.06.07.1.1z"/>
        <path d="m90.86 29.97c.37.3.75-.36.44-.6-.3-.24-.82.3-.44.6z"/>
        <path d="m90.41 22.57c-.2-.1-.26.22-.18.29.26.23.33-.21.18-.29z"/>
        <path d="m90.44 25.98c.31.21.41-.27.23-.39s-.54.18-.23.39z"/>
        <path d="m91.81 28.11c.09-.1.1-.24.03-.36-.18-.26-.81.09-.44.38.12.11.31.1.42-.03z"/>
        <path d="m91.04 24.55c.12.01.23-.08.24-.2 0-.08-.03-.17-.11-.21-.16-.09-.5.32-.14.42z"/>
        <path d="m89.38 26.6c-.07.12-.08.27 0 .38.12.16.35.19.51.07s.19-.35.07-.51c-.02-.02-.04-.04-.06-.06-.17-.11-.41-.06-.51.12z"/>
        <path d="m88.57 27.86c-.2 0-.36.17-.36.37 0 .08.03.16.08.22.52.51.89-.62.28-.59z"/>
        <path d="m88.49 20.89c.44.25.26-.64-.09-.34-.08.09-.06.23.03.31.02.01.04.02.06.03z"/>
        <path d="m88.88 25.63c-.23-.23-.77.16-.42.41.25.19.64-.17.42-.41z"/>
        <path d="m88.79 23.2c.15.01.29-.1.3-.26 0-.03 0-.07-.01-.1-.22-.45-.75.26-.29.36z"/>
        <path d="m89.2 24.43c.27.22.47-.17.3-.35-.17-.17-.63.05-.3.35z"/>
        <path d="m79.3 10.45c.1 0 .17-.09.16-.19v-.02c-.17-.37-.55.25-.16.21z"/>
        <path d="m80.3 13.5c-.19-.38-1.02-.1-.57.26.23.18.74.09.57-.26z"/>
        <path d="m74.48 15.45c.24.07.49-.06.56-.3.06-.19-.02-.4-.18-.51-.39-.17-1.04.6-.38.81z"/>
        <path d="m80.33 12.1c.29-.6-.71-.28 0 0z"/>
        <path d="m81.06 15.04c.69.46.42-.76-.06-.47-.23.13-.13.35.06.47z"/>
        <path d="m80.89 21.05c.16.14.39.15.56.04.59-.43-.24-1.16-.68-.61-.13.14-.12.37.02.5.03.03.06.05.09.06z"/>
        <path d="m80.92 16.03c-.17-.1-.39-.04-.49.13-.09.15-.06.33.07.45.49.36.73-.36.42-.57z"/>
        <path d="m79.23 12.79c-.14-.2-.44.07-.26.18s.36-.04.26-.18z"/>
        <path d="m74.37 12.58c-.18.03-.32.16-.37.33-.05.15.04.3.18.35h.03c.62.3.56-.64.16-.69z"/>
        <path d="m72.44 84.78c-.43.5.44.72.64.48.13-.18.09-.43-.08-.56s-.43-.09-.56.08z"/>
        <path d="m75.27 83.04c-.13-.18-.39-.22-.57-.09-.03.03-.06.06-.09.09-.58.76 1.17.77.66 0z"/>
        <path d="m78.45 14.8c.36.16.77-.27.48-.57-.3-.3-1.13.31-.48.57z"/>
        <path d="m74.04 85.35c-.12.12-.12.31 0 .43.24.27.93-.33.43-.61-.17-.06-.36.02-.43.18z"/>
        <path d="m81.96 17.85c.16.1.38.06.48-.11.1-.16.06-.38-.11-.48-.02-.01-.04-.02-.06-.03-.26-.11-.81.36-.31.62z"/>
        <path d="m82.89 14.05c.3.11.28-.33.1-.38-.11-.01-.21.06-.22.17-.01.09.04.18.12.21z"/>
        <path d="m82.69 15.86c.43.17.45-.49.17-.56s-.54.43-.17.56z"/>
        <path d="m82.84 18.26c-.14.12-.17.33-.05.48.05.06.11.1.18.11.7.25.39-1.08-.13-.59z"/>
        <path d="m84.05 22.49c.45.31.87-.36.49-.65s-1.04.28-.49.65z"/>
        <path d="m83.17 21.14c-.08.1-.07.26.04.34.02.01.03.02.05.03.15.15.39.15.54 0 .13-.16.11-.4-.04-.53-.16-.13-.39-.11-.53.04-.03.03-.05.07-.07.11z"/>
        <path d="m79.81 17.04c.12-.42-.55-.53-.74-.14-.06.11-.03.26.09.32h.02c.18.15.43.11.57-.07.03-.03.05-.07.06-.11z"/>
        <path d="m80.03 20.19c.56.35.87-.43.54-.69-.25-.17-.6-.11-.77.14-.05.08-.09.17-.1.26.06.14.18.25.33.29z"/>
        <path d="m81.08 18.65c-.03.18.08.35.26.39.13.11.33.1.44-.03.02-.03.04-.06.05-.09.26-.44-.64-.86-.76-.27z"/>
        <path d="m80.01 14.8c-.12.07-.16.22-.09.34.02.04.05.07.09.09.53.29.36-.65 0-.43z"/>
        <path d="m78.86 18.6c-.14.14-.13.37.01.5.04.04.1.07.15.09.14.1.34.08.45-.05.54-.43-.22-1.02-.62-.54z"/>
        <path d="m80.24 17.93c.17.07.37 0 .44-.18.05-.12.03-.25-.05-.35-.24-.22-.84.29-.39.53z"/>
        <path d="m20.99 79.01c-.22-.11-.49-.01-.6.21-.09.2-.03.43.14.56.34.23 1.06-.49.46-.77z"/>
        <path d="m55.99 92.01c-.56.2-.13.87.23.72s.23-.89-.23-.72z"/>
        <path d="m55.07 95.45c-.12.02-.2.14-.18.26s.14.2.26.18c.02 0 .04 0 .06-.02.22-.06.16-.56-.14-.43z"/>
        <path d="m55.42 94.17c-.72.36.55.71.42.13-.04-.16-.15-.26-.42-.13z"/>
        <path d="m48.31 95.26c-.43.08-.18.53.07.49s.26-.55-.07-.49z"/>
        <path d="m54.62 97.38c-.28.09 0 .27.11.21s-.1-.21-.11-.21z"/>
        <path d="m55.43 90.87c-.1-.05-.22-.05-.32 0-.56.19-.19.94.23.87.26-.15.34-.48.2-.74-.03-.05-.07-.09-.11-.13z"/>
        <path d="m53.85 93.68c-.62.18 0 .87.31.55.13-.12.15-.32.03-.45-.09-.1-.22-.13-.34-.09z"/>
        <path d="m57.11 90.83c-.1-.25-.23-.23-.47-.15-.19.02-.33.18-.32.38 0 .02 0 .05.01.07.08.59.99.31.77-.3z"/>
        <path d="m58.04 97.05c-.32.16.16.43.23.18.07-.24-.19-.18-.23-.18z"/>
        <path d="m58.85 93.06c-.11-.03-.23 0-.31.09-.49.38.47.87.55.3.04-.17-.06-.35-.24-.39z"/>
        <path d="m58.03 90.46c-.56.33.1.87.39.73s.28-1.14-.39-.73z"/>
        <path d="m57.19 93.8c-.54.22.06.87.36.61s-.15-.7-.36-.61z"/>
        <path d="m57.89 91.98c-.08-.1-.21-.15-.34-.14-.79.16-.17 1.02.3.7.17-.14.19-.39.05-.56z"/>
        <path d="m51.63 92.76c-.76.16 0 1.2.36.64.12-.2.05-.46-.15-.58-.07-.04-.14-.06-.22-.06z"/>
        <path d="m49.51 94.49c-.06-.1-.17-.06-.26 0-.48.3.54.45.26 0z"/>
        <path d="m49.66 96.63c-.56.21.5.53.23.04-.09-.14-.16-.07-.23-.04z"/>
        <path d="m52.05 91.2c-.24.1-.42.62-.1.75.6.23.77-.98.1-.75z"/>
        <path d="m48.54 92.51c-.45.1-.46.82.06.79s.56-.94-.06-.79z"/>
        <path d="m59.15 95.14c-.44.35.61.48.37 0-.09-.16-.22-.12-.37 0z"/>
        <path d="m49.34 92.01c.51.06.62-1.04 0-.92-.25.09-.39.36-.3.62.05.14.16.25.3.3z"/>
        <path d="m51.67 95.31c-.66.26.42.87.42.24.03-.24-.15-.36-.42-.24z"/>
        <path d="m50.68 91.23c-.21.02-.36.21-.34.42.02.15.12.28.27.33.63.16.82-.94.07-.75z"/>
        <path d="m53.18 92.51c-.65.21.21.82.36.36.07-.13.02-.29-.11-.36-.08-.04-.18-.04-.26 0z"/>
        <path d="m52.12 94.02c-.13.11-.15.31-.04.44.03.03.06.06.11.08.49.11.33-.79-.07-.52z"/>
        <path d="m50.98 94.18c-.54.16-.1.69.15.65s.38-.82-.15-.65z"/>
        <path d="m50.61 92.52c-.19 0-.35.16-.35.35s.16.35.35.35c.47.05.58-.82 0-.7z"/>
        <path d="m70.31 86.15c-.14-.21-.43-.26-.64-.12l-.03.02c-.18.18-.18.47 0 .65.3.38.95-.1.67-.56z"/>
        <path d="m64.88 91.76c-.46.33.16.73.43.45.12-.12.13-.32 0-.44-.12-.12-.32-.13-.44 0z"/>
        <path d="m67.18 91.03c-.31.31.26.62.44.38.18-.23-.17-.65-.44-.38z"/>
        <path d="m66.66 89.63c-.12-.05-.25-.01-.33.09-.14.06-.2.23-.14.37 0 .02.02.04.04.06.3.44.89-.26.43-.51z"/>
        <path d="m67.74 88.92c-.07.02-.13.06-.18.11-.59.53.76.77.56.13-.04-.17-.21-.28-.38-.24z"/>
        <path d="m66.63 88.16c-.01-.05-.03-.1-.06-.14-.15-.25-.3-.17-.48-.09-.2.06-.31.27-.26.46.06.2.27.31.46.26.23-.05.37-.26.33-.49z"/>
        <path d="m64.96 88.32c-.06.02-.12.07-.16.12-.7.62 1.03.94.56.07-.06-.16-.24-.25-.4-.19z"/>
        <path d="m66.67 92.51c-.46.42.57.56.42.08-.06-.19-.22-.27-.42-.08z"/>
        <path d="m69.48 90.97c-.38.31.24.5.39.3.06-.12.02-.28-.11-.34-.09-.05-.2-.03-.28.04z"/>
        <path d="m69.48 88.59c-.03-.19-.2-.32-.38-.29-.1.01-.19.07-.24.16-.46.6.91.87.62.13z"/>
        <path d="m69 87.38c.29-.19 0-1.04-.43-.67-.17.14-.19.39-.05.56.12.14.31.18.48.11z"/>
        <path d="m29.37 88.61c-.56-.09-.43.56-.15.66.41.15.74-.56.15-.66z"/>
        <path d="m68.63 93.27s-.07.02-.1.05c-.2.24.26.26.24.09 0-.08-.07-.14-.14-.13z"/>
        <path d="m68.86 89.9s-.03.03-.04.04c-.41.37.51.39.3 0-.06-.08-.17-.1-.25-.04z"/>
        <path d="m61.25 92.55c-.15.09-.29.21-.11.43.43.59.69-.79.11-.43z"/>
        <path d="m61.46 94.8c-.28.17.07.4.21.26s-.17-.29-.21-.26z"/>
        <path d="m60.86 95.84s-.02.09 0 .14c.21.34.28-.56 0-.14z"/>
        <path d="m60.96 90.4c.34-.23.06-.89-.34-.63-.37.23 0 .87.34.63z"/>
        <path d="m62.35 90.74c-.05-.16-.22-.24-.37-.19-.04.01-.08.03-.11.06-.18.05-.29.24-.24.42 0 .02.01.04.02.05.06.21.28.32.49.26s.32-.28.26-.49c-.01-.04-.03-.07-.05-.1z"/>
        <path d="m60.72 91.32c-.07 0-.13 0-.19.04-.19.03-.32.2-.3.39 0 .03.01.05.02.08.17.16.43.15.59-.01.05-.05.09-.12.11-.2.02-.15-.08-.28-.23-.3z"/>
        <path d="m63.59 88.92c-.07 0-.13.02-.19.06-.21.07-.33.29-.27.5.15.45.99.36.87-.19 0-.22-.19-.38-.41-.37z"/>
        <path d="m64.75 90.15c-.15.09-.19.29-.09.43.07.11.21.17.35.13.43-.12.26-.98-.25-.56z"/>
        <path d="m64.27 93.36c-.38.3.24.51.36.21.11-.3-.15-.38-.36-.21z"/>
        <path d="m63.54 90.36c-.19.05-.3.24-.25.42.03.11.11.2.21.24.51.16.59-.88.04-.66z"/>
        <path d="m63.22 91.84c-.16.06-.25.23-.19.39s.23.25.39.19h.02c.27-.12.18-.77-.23-.58z"/>
        <path d="m61.92 89.32c-.64.26-.05.91.35.72.2-.1.28-.33.19-.53-.1-.2-.33-.28-.53-.19z"/>
        <path d="m55.09 92.9c0-.27-.17-.41-.46-.26-.62.34.5.94.46.26z"/>
        <path d="m36.05 90.6c-.05-.12-.15-.2-.27-.23-.65-.06-.31.78.07.71.19-.08.28-.3.2-.49z"/>
        <path d="m35.23 88.37c-.28 0-.51.22-.51.49 0 .16.07.32.21.42.65.32.94-.91.3-.91z"/>
        <path d="m36.17 92.17c-.03-.12-.13-.21-.26-.22-.54 0-.36.62.04.56.15-.04.25-.19.21-.34z"/>
        <path d="m34.28 91.61c-.06-.1-.18-.14-.29-.1-.62.07.41.62.29.1z"/>
        <path d="m34.28 89.55c-.87-.1 0 1.16.32.45.1-.24-.02-.41-.32-.45z"/>
        <path d="m34.22 92.94c-.3.13.06.39.18.3.12-.1 0-.39-.18-.3z"/>
        <path d="m36 94.82c-.17 0-.36.23-.21.35s.49-.33.21-.35z"/>
        <path d="m37.49 92.34c-.07-.03-.15-.03-.22 0-.16 0-.27 0-.29.19-.04.5.82.17.5-.19z"/>
        <path d="m37.93 94.23c-.04-.1-.15-.14-.25-.11-.47.15.35.59.25.11z"/>
        <path d="m38.04 89c-.67 0-.39.79 0 .87.52.09.56-.85 0-.87z"/>
        <path d="m38.45 95.3s-.02 0-.03 0c-.66 0 .27.87.29.21-.01-.13-.12-.22-.25-.21z"/>
        <path d="m37.31 90.69c0-.21-.04-.43-.44-.42-.19-.02-.36.1-.4.29-.04.23.12.45.36.49.23.04.45-.12.49-.36z"/>
        <path d="m36.33 96.18c-.07 0-.13.1-.05.16.22.23.31-.27.05-.16z"/>
        <path d="m36.3 93.64c-.07-.06-.15-.08-.24-.07-.69 0-.04.87.28.49.11-.13.09-.32-.04-.43z"/>
        <path d="m30.96 91.84c-.93-.07.23 1.06.32.29 0-.21-.1-.29-.32-.29z"/>
        <path d="m31.59 89.88c-.2-.06-.41.05-.47.24-.06.2.05.41.24.47.32.1.69-.61.23-.71z"/>
        <path d="m31.06 94.53c-.27 0 0 .28.07.22s-.04-.22-.07-.22z"/>
        <path d="m29.81 90.1c-.56 0 .29.77.26.17 0-.23-.11-.17-.26-.17z"/>
        <path d="m30.61 87.53c-.07-.06-.16-.09-.26-.09-.21-.1-.46-.01-.57.19-.16.38.56.87.87.43.13-.16.12-.39-.04-.53z"/>
        <path d="m31.6 88.21c-1.13-.33-.18 1.35.3.57.16-.29.1-.46-.3-.57z"/>
        <path d="m33.2 94.1c-.31.04 0 .36.11.23.05-.06.04-.15-.02-.2-.03-.02-.06-.03-.09-.03z"/>
        <path d="m34.14 88.32c0-.16-.05-.33-.39-.35-.22-.05-.43.09-.48.3 0 .03-.01.07 0 .11-.04.51.83.51.88-.06z"/>
        <path d="m48.24 94.52s.04 0 .05 0c.28-.07.25-.52-.07-.44-.12 0-.22.11-.22.23s.11.22.23.22z"/>
        <path d="m32.91 87.74c.13-.18.1-.43-.08-.56-.05-.04-.11-.06-.17-.07-.24-.08-.51.02-.64.23-.14.37.62.87.89.4z"/>
        <path d="m32.84 89.06c-.32-.04-.69.47-.39.69.44.36 1.06-.61.39-.69z"/>
        <path d="m32.68 92.4c-.69-.11-.14.82.19.49.11-.12.1-.31-.02-.42-.05-.04-.11-.07-.18-.08z"/>
        <path d="m33.07 90.86c-.06-.05-.13-.08-.21-.09-.69 0-.16 1.03.25.67.15-.17.13-.43-.05-.58z"/>
        <path d="m44.91 90.89c-.62.05-.4.87.06.87s.5-.92-.06-.87z"/>
        <path d="m44.87 95.18s-.07.01-.11.04c-.38.2.36.6.35.17 0-.12-.12-.22-.24-.21z"/>
        <path d="m38.9 92.45c-.21-.02-.39.14-.4.34-.01.18.1.34.26.39.34.04.57-.67.14-.73z"/>
        <path d="m44.23 92.06c-.22.06-.34.29-.28.5.05.16.18.28.35.3.36 0 .56-.92-.07-.8z"/>
        <path d="m46.2 91.9c.54 0 .85-1.15 0-.93-.63.13-.29.87 0 .93z"/>
        <path d="m44 90.98c.03-.19-.11-.37-.3-.4-.06 0-.12 0-.17.02-.17 0-.32.13-.34.3-.06.22.07.45.29.51s.45-.07.51-.29c.01-.05.02-.1.01-.15z"/>
        <path d="m46.65 94.11c0-.23-.09-.4-.42-.3-.74.23.4 1.1.42.3z"/>
        <path d="m43.44 93.85c-.38 0-.3.49 0 .49s.26-.47 0-.49z"/>
        <path d="m48.23 91.88c.23-.12.31-.4.2-.62-.08-.15-.23-.25-.4-.25-.84.06-.32 1.17.21.87z"/>
        <path d="m47.08 92.22c-.43.11-.31.87.17.67.19-.07.38-.83-.17-.67z"/>
        <path d="m46.5 95.47c-.1.12-.08.3.05.4.02.02.04.03.07.04.49.13.3-.79-.11-.44z"/>
        <path d="m46.17 96.88c-.11.01-.19.11-.18.22s.11.19.22.18h.02c.29-.02.26-.52-.06-.4z"/>
        <path d="m45.57 92.62c-.21.04-.34.24-.3.45.03.17.18.29.35.3.35-.02.55-.86-.05-.76z"/>
        <path d="m41.26 95.19c-.06-.09-.18-.11-.28-.06-.65.24.65.59.28.06z"/>
        <path d="m40.43 92.9s-.08-.02-.11-.02c-.54.08.04.73.24.32.05-.12 0-.26-.13-.31z"/>
        <path d="m40.77 89.79c-.27.03-.47.27-.45.54.02.19.14.35.32.42.52.11.71-.95.13-.95z"/>
        <path d="m39.57 94.43h-.03c-.53.23.6.98.55.28-.07-.22-.3-.34-.52-.28z"/>
        <path d="m39.64 90.07c.02-.05.03-.11.02-.17.02-.2-.12-.38-.32-.41-.01 0-.02 0-.04 0-.19-.06-.39.05-.44.24v.04c-.08.22.03.46.25.53s.46-.03.53-.25z"/>
        <path d="m39.67 96.87s.3-.36 0-.28c-.23.07 0 .27 0 .28z"/>
        <path d="m43.51 95.76c.32-.62-.75-.15 0 0z"/>
        <path d="m42.97 96.61c-.6.17.5.62.31.09-.03-.12-.16-.13-.31-.09z"/>
        <path d="m42.57 91.77c-.5.1-.3.87.13.77s.45-.89-.13-.77z"/>
        <path d="m41.7 96.72c0-.87-.87.12 0 0z"/>
        <path d="m42.43 90.48s-.04-.06-.07-.08c-.08-.02-.16-.02-.24 0-.71 0-.33 1.07.17.87.26-.18.32-.53.14-.79z"/>
        <path d="m41.7 93.74c-.65.11.09.79.32.46s-.04-.52-.32-.46z"/>
        <path d="m59.79 92.77c-.53.25.08.69.3.56.15-.09.19-.29.1-.44-.09-.14-.26-.19-.4-.12z"/>
        <path d="m90.86 69.1c-.13-.23-.33 0-.33.08-.03.33.45.13.33-.08z"/>
        <path d="m90.96 74.18c-.1-.03-.22.02-.25.13v.04c-.15.58.67.04.26-.16z"/>
        <path d="m89.82 73.27c0 .14-.05.23.1.27.54.16.05-.8-.1-.27z"/>
        <path d="m89.93 65.85s-.04.07-.05.12c-.15.67.87.16.39-.16-.11-.08-.26-.06-.34.04z"/>
        <path d="m90.03 67.01c-.16-.01-.3.09-.34.25-.12.57.57.44.63.1.01-.18-.12-.33-.29-.35z"/>
        <path d="m91.67 67.34c-.1-.13-.28-.16-.41-.06-.05.04-.09.1-.11.16-.1.59.84.25.52-.1z"/>
        <path d="m91.11 71.66c.03.08.12.12.2.1.05-.02.08-.05.1-.1.03-.13-.3-.31-.3 0z"/>
        <path d="m92.16 59.11c0 .47.7.48.7.08s-.69-.5-.7-.08z"/>
        <path d="m92.62 57.07c-.19.03-.32.22-.29.41.09.54.74.25.69-.12-.03-.19-.22-.32-.41-.29z"/>
        <path d="m93.56 63.46c0-.34-.58-.31-.56 0 .03.31.54.25.56 0z"/>
        <path d="m91.73 60.43c0 .49.59.34.62 0s-.63-.49-.62 0z"/>
        <path d="m91.76 73.18c-.05.42.61.15.43-.13s-.42 0-.43.13z"/>
        <path d="m91.68 69.1c-.1.62.75.19.51-.16s-.49.03-.51.16z"/>
        <path d="m89.94 76.42c-.16-.07-.18 0-.21.14-.11.45.58.03.21-.14z"/>
        <path d="m93.19 67.36c-.05.12 0 .26.12.31.02.01.05.02.07.02.63.1-.1-1.02-.19-.33z"/>
        <path d="m88.43 67.98c.09-.2 0-.44-.19-.53-.03-.02-.07-.03-.11-.03-.17-.05-.34.05-.39.21 0 .03-.01.06-.01.09-.08.17 0 .37.16.45.2.1.44.01.53-.19z"/>
        <path d="m87.32 73.74c-.06.04-.1.09-.13.16-.09.18-.03.4.14.51.29.12.59-.38.49-.57-.11-.16-.33-.21-.49-.1z"/>
        <path d="m87.47 76.13c-.09.13-.19.23 0 .32.47.17.31-.8 0-.32z"/>
        <path d="m88.16 77.9c.47.43.36-.53 0 0z"/>
        <path d="m86.68 72.22c-.2-.05-.4.08-.45.28-.18.55.62.59.73.16.05-.2-.08-.4-.28-.45z"/>
        <path d="m87.37 70.93h-.02c-.14.04-.23.16-.23.3-.17.61.63.6.73.14 0-.25-.22-.45-.48-.44z"/>
        <path d="m88.88 71.68c-.12.4.44.7.62.31s-.47-.84-.62-.31z"/>
        <path d="m89.95 70.57c.41-.27-.38-.87-.43-.32 0 .16.23.46.43.32z"/>
        <path d="m88.05 70.22c-.14.55.73.51.7.1-.03-.42-.62-.4-.7-.1z"/>
        <path d="m88.29 72.57c-.06.04-.11.1-.13.18-.22.68.79.3.52-.09-.08-.13-.26-.17-.4-.09z"/>
        <path d="m89 74.59c-.06 0-.1 0-.16.16s-.1.21 0 .29c.36.24.51-.41.16-.45z"/>
        <path d="m87.35 81.42c-.05.26.23.16.26 0s-.23-.12-.26 0z"/>
        <path d="m7.85 45.14c.2.04.39-.09.43-.28 0-.04 0-.08 0-.12.04-.26-.13-.5-.38-.54-.02 0-.03 0-.05 0-.55 0-.55.9 0 .95z"/>
        <path d="m96.66 49.92c-.1 0-.18.07-.14.27.16.75.84-.46.14-.27z"/>
        <path d="m97.54 39.46c-.49-.1 0 .57 0 0z"/>
        <path d="m96.89 37.97c.11.08.25-.23.11-.27-.16-.05-.23.19-.11.27z"/>
        <path d="m96.88 52.15c0-.15-.12-.26-.26-.26s-.26.12-.26.26c.03.58.56.28.53 0z"/>
        <path d="m96.62 63.07c.06.1.32 0 .28-.16s-.41-.06-.28.16z"/>
        <path d="m99.78 49.19c.08.16.25.04.22-.1s-.33-.1-.22.1z"/>
        <path d="m98.55 40.62s.15.09.18 0c.14-.26-.37-.15-.18 0z"/>
        <path d="m96.29 58.13c-.16 0-.18.13-.14.25.16.38.57-.25.14-.25z"/>
        <path d="m98.39 54.51c.08.35.45 0 .24-.16s-.25.16-.24.16z"/>
        <path d="m93.35 61.82c0 .41.42.25.44 0 .03-.25-.42-.36-.44 0z"/>
        <path d="m97.83 48.78c.1.23.43 0 .36-.18s-.45-.05-.36.18z"/>
        <path d="m70.67 87.89c.01-.19-.14-.36-.33-.37-.08 0-.16.02-.22.06-.65.49.49.92.55.3z"/>
        <path d="m94.88 69.48c-.06 0-.12.03-.13.09v.06c-.04.5.51-.14.12-.16z"/>
        <path d="m94.49 55.38c-.28-.05-.36.15-.31.36.14.72.91-.2.31-.36z"/>
        <path d="m94.56 51.45c.06.17.47.37.61.12.26-.53-.83-.74-.61-.12z"/>
        <path d="m94.53 53.27c.06.17.24.26.41.2.13-.05.22-.17.22-.31-.05-.3-.77-.38-.62.11z"/>
        <path d="m93.83 60.18c-.03.18.09.35.27.38s.35-.09.38-.27c.06-.32-.64-.57-.65-.11z"/>
        <path d="m93.84 64.69c0 .29.43.23.47 0 .03-.23-.53-.48-.47 0z"/>
        <path d="m96.38 53.71c-.03-.12-.16-.19-.28-.15-.12.03-.19.16-.15.28 0 .02.01.04.03.06.08.38.46.05.41-.18z"/>
        <path d="m95.94 40.21c-.2 0-.3.16-.14.44.35.62.66-.5.14-.44z"/>
        <path d="m96.23 55.23c-.18 0-.26.2-.19.43.18.65.78-.49.19-.43z"/>
        <path d="m95.21 57.18c.08.23.27.26.38.11.28-.36-.59-.74-.38-.11z"/>
        <path d="m95.31 46.37c0 .14.11.25.25.26.03 0 .06 0 .08-.01.58-.19-.45-.84-.33-.24z"/>
        <path d="m95.45 59.65c.03.08.12.12.2.09.02 0 .04-.02.05-.03.27-.28-.44-.37-.25-.06z"/>
        <path d="m98.45 51.6c-.06-.6-.54.21 0 0z"/>
        <path d="m75.55 88.18c-.14.11-.25.31 0 .44.31.21.36-.73 0-.44z"/>
        <path d="m74.94 88.63c-.08-.11-.24-.14-.35-.06-.04.03-.07.07-.09.12-.28.53.78.39.44-.07z"/>
        <path d="m75.91 84.42c-.14-.03-.29.04-.36.17-.6.64.62.79.64.23.03-.19-.09-.37-.28-.4z"/>
        <path d="m75.14 86.2c-.22.36.32.43.49.25.16-.18-.27-.61-.49-.25z"/>
        <path d="m75.93 82.15s-.02.02-.03.03c-.16.11-.2.34-.09.5.02.03.05.06.09.09.38.36.87-.25.44-.63-.12-.11-.31-.1-.42.02z"/>
        <path d="m75 91.98c.08.18.3 0 .21-.12-.09-.01-.18.04-.21.12z"/>
        <path d="m76.04 89.17c-.13-.07-.15 0-.25.11-.47.52.82.19.25-.11z"/>
        <path d="m78.53 84.1c-.13-.12-.32-.11-.44.01-.03.03-.06.07-.07.12-.11.13-.1.32.03.43.02.02.05.04.08.05.29.18.63-.37.41-.61z"/>
        <path d="m77.73 88.93c-.06.08-.1.16 0 .23.24.19.19-.48 0-.23z"/>
        <path d="m77.1 84.13c.26-.25-.19-.87-.47-.47-.1.16-.06.37.1.47.11.07.26.07.37 0z"/>
        <path d="m77.24 85.89c.07-.15.02-.33-.13-.4s-.33-.02-.4.13c-.29.46.39.52.53.27z"/>
        <path d="m76.99 87.5c-.16.24.15.62.4.42s-.16-.82-.4-.42z"/>
        <path d="m72.21 89.89c-.25.28.28.33.26.1s-.24-.13-.26-.1z"/>
        <path d="m71.75 85.87c.08-.19-.01-.4-.2-.48-.11-.05-.24-.03-.34.03-.51.41.35.87.54.44z"/>
        <path d="m71.56 86.96c-.26.35.25.7.53.5s-.11-1.08-.53-.5z"/>
        <path d="m71.46 92.01c-.22.24.18.37.32.23.14-.15-.14-.4-.32-.23z"/>
        <path d="m71.68 88.73c0-.29-.24-.35-.4-.18-.34.36.4.53.4.18z"/>
        <path d="m70.15 93.34s-.03.03-.05.05c-.35.38.56.42.31 0-.06-.09-.18-.11-.27-.05z"/>
        <path d="m70.5 89.31c-.58.53.71.6.47.05-.09-.21-.25-.26-.47-.05z"/>
        <path d="m74 87c-.11.13-.09.33.04.44.1.08.24.1.36.03.34-.21-.08-.9-.4-.47z"/>
        <path d="m73.4 91.08c-.07-.02-.15 0-.19.06-.24.29.24.36.31.17.03-.1-.02-.2-.12-.23z"/>
        <path d="m73.52 83.97c-.15.16-.15.41 0 .56.14.13.35.15.5.04.34-.25-.11-1.09-.51-.61z"/>
        <path d="m73.3 88.21c-.1-.22-.26-.28-.48 0-.45.52.69.5.48 0z"/>
        <path d="m73.28 86.76c.14-.13.16-.33.05-.48-.1-.14-.22-.23-.46-.02-.15.14-.26.27-.1.48.14.15.37.16.52.02z"/>
        <path d="m78.3 86.34c-.07.1-.05.24.06.31.07.05.17.05.25 0 .23-.18-.09-.62-.3-.32z"/>
        <path d="m79.45 82.88c-.05.03-.09.08-.11.14-.35.62.87.45.47-.06-.08-.12-.24-.16-.36-.08z"/>
        <path d="m82.57 79.81c-.15.27-.16.24 0 .43.15.14.38.13.52-.01.03-.03.05-.06.07-.1.22-.34-.35-.75-.58-.32z"/>
        <path d="m81.74 81.64c-.01.1.06.18.15.19.06 0 .12-.02.16-.07.11-.16-.23-.47-.31-.12z"/>
        <path d="m83.84 83.25c-.01.08.05.15.13.16.05 0 .09-.01.12-.04.14-.17-.23-.42-.25-.12z"/>
        <path d="m83.36 78.91c-.06.05-.1.12-.11.19-.27.53.49.56.6.24s-.34-.53-.49-.43z"/>
        <path d="m82.86 82.03s-.02.05-.02.08c-.1.42.49 0 .25-.13-.08-.05-.18-.02-.23.05z"/>
        <path d="m81.88 78.36c-.34.49.32.67.51.47s-.19-.95-.51-.47z"/>
        <path d="m84.53 81.03c-.1-.29-.44-.08-.48 0-.21.47.61.39.48 0z"/>
        <path d="m85.61 81.14c-.14.38.43.14.31-.1s-.35.18-.31.1z"/>
        <path d="m85.46 79.6c-.07.11-.1.18.05.28.46.28.22-.74-.05-.28z"/>
        <path d="m84.37 82.59c-.07.31.44.09.29-.11s-.26 0-.29.11z"/>
        <path d="m85.07 77.7c-.17-.02-.32.08-.36.24-.17.49.55.5.63.12.03-.18-.1-.34-.27-.37z"/>
        <path d="m84.89 75.48c-.03.15.07.3.22.32.1.02.21-.02.27-.11.1-.22-.39-.6-.49-.22z"/>
        <path d="m79.29 86.79c-.35.59.87.19.41-.16-.13-.1-.27-.08-.41.16z"/>
        <path d="m79.42 85.13c0 .13.09.24.22.25.06 0 .13-.02.17-.06.24-.24-.27-.65-.39-.19z"/>
        <path d="m78.93 88.01c-.1-.02-.2.04-.22.13v.03c-.07.34.59-.03.23-.16z"/>
        <path d="m85.97 78.31c-.26.41.49.4.42 0s-.42 0-.42 0z"/>
        <path d="m81.48 82.97c-.41.54.62.54.53.1s-.49-.16-.53-.1z"/>
        <path d="m80.43 80.72c-.21-.15-.3-.07-.43.1-.15.13-.16.36-.03.5.03.03.06.06.1.08.36.23.74-.4.35-.69z"/>
        <path d="m78.77 81.36c-.08.06-.15.13-.19.23-.27.49.43.64.62.32s-.3-.59-.43-.55z"/>
        <path d="m79.24 80.03c.15.08.34.06.46-.07.2-.27-.3-.96-.61-.45-.1.18-.03.42.15.52z"/>
        <path d="m81.27 79.57c-.25.49.43.69.65.39s-.36-.99-.65-.39z"/>
        <path d="m81.19 84.13c-.16.33.15.41.3.33.33-.21-.02-.9-.3-.33z"/>
        <path d="m80.31 78.66c.15.07.33.04.45-.09.25-.32-.35-1.06-.62-.43-.09.19-.01.42.18.51z"/>
        <path d="m80.41 82.47c-.1.14-.07.34.07.44s.34.07.44-.07c.25-.26-.24-.93-.51-.36z"/>
        <path d="m81.81 77.45c.1-.34-.42-.52-.52-.47-.09.07-.16.17-.18.28-.21.54.58.58.7.19z"/>
        <path d="m97.56 56.54c.09.23.36 0 .29-.15s-.4-.15-.29.15z"/>
        <path d="m7.45 33.89c.05-.11 0-.25-.12-.3-.03-.01-.06-.02-.1-.02-.62-.08.14.86.22.31z"/>
        <path d="m6.55 37.08c.19 0 .35-.16.35-.35 0-.57-.66-.27-.69 0 0 .19.16.35.35.35z"/>
        <path d="m8.55 34.05c.13.14.35.14.49.01.07-.06.11-.15.11-.25.04-.72-1.05-.14-.6.23z"/>
        <path d="m7.99 29.84c.2-.72-.87-.15-.43.2.22.16.41-.11.43-.2z"/>
        <path d="m8.27 28.24c.05-.06.06-.13.05-.21 0-.44-.68 0-.42.25.11.09.28.07.37-.04z"/>
        <path d="m8.1 31.08c0 .31.62.41.67 0 .06-.56-.69-.4-.67 0z"/>
        <path d="m7.04 35.64c.09-.08.14-.21.11-.33 0-.16 0-.33-.21-.35-.5-.03-.29.83.1.68z"/>
        <path d="m6.47 42.9c.21.05.42-.07.47-.28 0-.02 0-.05.01-.07.05-.2-.07-.41-.27-.47-.23-.06-.46.09-.51.32-.05.22.08.45.3.51z"/>
        <path d="m4.55 37.53c.14.08.31.04.39-.1.03-.05.04-.11.04-.16.09-.83-1.02-.02-.43.26z"/>
        <path d="m4.79 38.76c.05-.52-.62-.29-.5.07s.49.16.5-.07z"/>
        <path d="m5.5 31.41c.11 0 .1-.06.09-.22-.05-.43-.44.3-.09.22z"/>
        <path d="m5.53 30.09c.1.04.22-.01.26-.12 0-.02.01-.05.01-.07.02-.45-.71.03-.27.19z"/>
        <path d="m5.65 34.83c.17.07.36 0 .43-.17.01-.03.02-.07.03-.11 0-.87-1.11 0-.46.28z"/>
        <path d="m12.08 24.56c-.06.35.46.39.56.1.18-.48-.45-.43-.56-.1z"/>
        <path d="m13.78 27.47c.19.07.41-.03.48-.22.01-.03.02-.07.02-.1.07-.14.03-.32-.1-.41-.5-.4-.95.49-.4.73z"/>
        <path d="m9.41 30.07c.13 0 .19-.05.23-.28.03-.23.06-.36-.23-.41-.46-.04-.39.69 0 .69z"/>
        <path d="m3.82 40.41c0 .34.7.48.58 0-.03-.16-.18-.27-.34-.24-.12.02-.22.12-.24.24z"/>
        <path d="m13.44 22.17c.11 0 .21-.08.24-.19.11-.42-.48-.3-.51-.05 0 .14.13.25.27.25z"/>
        <path d="m13.67 24.77c.1 0 .2-.06.22-.16.03-.53-.69 0-.22.16z"/>
        <path d="m13.72 17.74c.1.01.2-.07.21-.17 0-.01 0-.02 0-.04.05-.42-.66.16-.21.21z"/>
        <path d="m12.99 23.31c.07.07.27-.1.27-.23 0-.34-.63 0-.27.23z"/>
        <path d="m10.57 24.59s.02-.06.02-.09c.12-.4-.39-.38-.48-.13-.06.13 0 .28.12.34.13.06.28 0 .34-.12z"/>
        <path d="m10.3 29.8c-.27.46.61.99.67.23.05-.19-.07-.38-.26-.43-.16-.04-.33.04-.41.2z"/>
        <path d="m12.3 27.12c.19-.68-.8-.42-.73 0s.62.31.73 0z"/>
        <path d="m10.1 26.74c.06-.11.03-.26-.09-.32-.02-.01-.05-.02-.07-.03-.62-.16 0 .98.16.35z"/>
        <path d="m11.32 25.8c.07-.1.04-.24-.06-.31-.03-.02-.05-.03-.08-.03-.58-.19 0 .85.15.35z"/>
        <path d="m11.41 28.62c.1 0 .11-.06.2-.28.12-.13.12-.33 0-.46-.72-.57-.87.87-.2.74z"/>
        <path d="m11.99 22.22c.2 0 .2-.1.22-.23.13-.76-.89.12-.22.23z"/>
        <path d="m1.95 61.25c-.06-.31-.29.1 0 0z"/>
        <path d="m2.17 53.59c-.09-.04-.19 0-.23.09 0 .02-.01.04-.01.07 0 .32.48.16.34-.08-.02-.04-.06-.06-.1-.08z"/>
        <path d="m2.93 51.44c-.17-.56-.62.17-.29.34s.36-.12.29-.34z"/>
        <path d="m2.21 44.17c.2 0 .22-.14.21-.26-.07-.63-.74.18-.21.26z"/>
        <path d="m1.35 49.26c-.1.03-.16.13-.14.23 0 .31.57.27.39-.1-.03-.11-.15-.17-.25-.13z"/>
        <path d="m1.94 47.71c-.08-.12-.24-.15-.36-.07-.03.02-.05.04-.07.07-.2.56.72.44.43 0z"/>
        <path d="m3.57 62.24c.08.01.16-.04.17-.12 0-.06-.02-.11-.06-.15-.23-.15-.23.23-.1.27z"/>
        <path d="m4.09 55.75h-.01c-.45.17.33.57.2.16 0-.1-.09-.17-.19-.16z"/>
        <path d="m4.82 52.33c.08-.07.1-.17.07-.27-.02-.18-.19-.31-.36-.29-.55.1-.09.82.3.56z"/>
        <path d="m4.97 54.03c-.04-.11-.29-.3-.41-.14-.3.38.61.62.41.14z"/>
        <path d="m.5 41.12c-.17.22.26.43.2.13-.02-.1-.1-.25-.2-.13z"/>
        <path d="m2.93 53.51c.15.08.33.03.41-.11.03-.06.05-.13.04-.2-.12-.74-.87.1-.45.31z"/>
        <path d="m3.82 57.98c.19-.05.29-.17.14-.44-.36-.7-.79.57-.14.44z"/>
        <path d="m3.08 42.19c0 .24.62.45.62.04s-.62-.39-.62-.04z"/>
        <path d="m3.25 39.24c-.02-.11-.13-.18-.24-.16s-.18.13-.16.24c0 .17.5.27.4-.08z"/>
        <path d="m3.51 45.36c.06-.05.07-.15.02-.21l-.02-.02c-.18-.25-.29.38 0 .23z"/>
        <path d="m3.34 36.45c0-.14 0-.24-.16-.24-.54.03.16.75.16.24z"/>
        <path d="m3.98 34.44c0-.17 0-.3-.22-.32-.64-.03.13.89.22.32z"/>
        <path d="m3.41 50.01s-.06.02-.08.03c-.43.26.36.87.44.31 0-.05-.01-.09-.04-.13-.03-.15-.17-.24-.31-.21z"/>
        <path d="m.48 48.19c.39.05-.05-.44 0 0z"/>
        <path d="m3.77 43.65c-.05-.26-.14-.31-.27-.3-.32 0-.33.82.1.75.16 0 .23-.19.17-.44z"/>
        <path d="m2.24 45.59c0-.21-.06-.32-.29-.3-.77.08.35 1.04.29.3z"/>
        <path d="m0 53.14c.06.05.14.05.2 0 .02-.02.03-.05.04-.08 0-.05-.04-.09-.09-.11-.07 0-.16.11-.15.2z"/>
        <path d="m3.51 46.86c-.06-.18-.25-.27-.43-.21-.14.05-.23.17-.23.32 0 .36.8.42.66-.1z"/>
        <path d="m1.79 42.37c.13 0 .24-.11.24-.24s-.11-.24-.24-.24-.24.11-.24.24.11.24.24.24z"/>
        <path d="m2.21 38.28c.01-.09-.05-.16-.14-.17-.04 0-.08 0-.11.03-.05.02-.1.07-.12.12-.12.25.36.26.36.03z"/>
        <path d="m3.08 48.74c.16.03.32-.08.36-.24 0-.04 0-.08 0-.12-.12-.87-1.01.22-.36.36z"/>
        <path d="m8.03 35.15c-.09.31.68.65.65.13-.02-.36-.56-.45-.65-.13z"/>
        <path d="m6.38 45.48c-.11.04-.19.12-.23.23-.13.56 1.01.73.7 0-.07-.19-.28-.3-.48-.23z"/>
        <path d="m14.86 20.89c.14-.54-.76-.31-.62.07.15.38.55.12.62-.07z"/>
        <path d="m6.11 49.89c0 .41.95.87.87 0-.09-.87-.87-.32-.87 0z"/>
        <path d="m6.78 40.1c.07.24.32.38.56.31s.38-.32.31-.56c-.1-.72-1.05-.28-.87.25z"/>
        <path d="m6.43 54.18c-.19.07-.29.27-.25.46.09.52 1.07.43.76-.23-.08-.21-.31-.31-.51-.23z"/>
        <path d="m6.7 41.42c.16.07.35 0 .42-.16.03-.07.04-.16 0-.24-.06-1-1.28.21-.43.4z"/>
        <path d="m6.86 48.65c-.07-.27-.6-.5-.74-.18-.27.61.91.83.74.18z"/>
        <path d="m5.9 59.17c.2.04.39-.09.43-.29.02-.1 0-.2-.06-.29-.4-.76-1.02.51-.36.57z"/>
        <path d="m5.97 60.02c.09-.05.13-.16.09-.26 0-.01-.01-.02-.02-.03-.33-.41-.57.48-.07.29z"/>
        <path d="m6.22 62.28c.18.02.34-.11.36-.3 0-.07 0-.15-.05-.21-.43-.74-.86.45-.31.5z"/>
        <path d="m6.47 53.29c.15-.08.22-.26.19-.42-.19-.55-.87-.13-.72.28.11.19.35.25.53.14z"/>
        <path d="m6.06 44.4c.09.22.34.32.56.23.17-.07.28-.25.26-.44-.1-.69-.89-.24-.82.21z"/>
        <path d="m6.61 51.52c-.01-.24-.22-.42-.46-.41s-.42.22-.41.46c.06.44.94.5.87-.04z"/>
        <path d="m7.58 48.83c-.21.1-.3.36-.2.57s.36.3.57.2c.18-.09.27-.29.23-.48-.09-.24-.35-.36-.6-.29z"/>
        <path d="m8.1 47.81c-.05-.73-.99-.42-.96.05 0 .52 1.01.53.96-.05z"/>
        <path d="m7.14 56.13c-.1-.19-.33-.25-.52-.15-.16.09-.23.27-.19.44.11.33.97.22.7-.29z"/>
        <path d="m7.86 53.94s.08-.01.12-.02c.28-.06.45-.24.29-.64-.05-.21-.26-.34-.47-.29-.26.02-.46.24-.45.51.02.26.24.46.51.45z"/>
        <path d="m7.82 51.04h.02c.27-.05.46-.31.42-.59-.08-.24-.33-.37-.57-.31-.25.04-.42.27-.38.52s.27.42.52.38z"/>
        <path d="m7.24 46.24c-.06.25.08.5.33.56.19.11.43.05.55-.13.05-.08.07-.18.05-.28.04-.22-.11-.43-.33-.47h-.03c-.25-.07-.5.08-.56.33z"/>
        <path d="m7.85 52.4c.21.03.41-.12.44-.34.01-.08 0-.16-.04-.23-.33-1.06-1.48.61-.4.56z"/>
        <path d="m7.24 38.48c0 .44.77.45.74-.08s-.72-.32-.74.08z"/>
        <path d="m7.48 32.92c-.06.35.61.63.68.07s-.61-.43-.68-.07z"/>
        <path d="m7.76 37.39c.24 0 .44-.19.44-.43 0-.04 0-.07-.01-.11-.14-.92-1.35.41-.43.54z"/>
        <path d="m8.45 54.76c0-.25-.21-.46-.46-.46s-.46.21-.46.46c.05.5 1.02.62.92 0z"/>
        <path d="m5.56 55.24c0-.08-.03-.16-.08-.22-.36-.53-.82.49-.24.52.17 0 .32-.13.32-.3z"/>
        <path d="m9.09 57.66c-.08-.25-.36-.39-.61-.31-.21.07-.35.28-.33.5.12.43 1.13.38.95-.19z"/>
        <path d="m8.72 56.16c-.27-.63-.99-.1-.87.31s1.2.37.87-.31z"/>
        <path d="m6.83 47.39c-.15-.59-.94-.28-.87.18.07.43 1.02.41.87-.18z"/>
        <path d="m13.92 73.11c-.21-.13-.49-.06-.62.16-.06.1-.08.22-.05.34.28.55 1.32-.06.67-.49z"/>
        <path d="m11.81 70.01c.08-.17.02-.37-.15-.45-.1-.13-.29-.16-.43-.06-.54.36.3 1.05.57.51z"/>
        <path d="m14.79 71.22c-.51-.46-.87.36-.69.62s1.3-.1.69-.62z"/>
        <path d="m13.83 70.81c.28-.12.38-.37.11-.58-.61-.49-.84.91-.11.58z"/>
        <path d="m13.13 69.89c.09-.03.17-.09.22-.17.13-.12.14-.31.02-.44l-.02-.02c-.08-.17-.29-.25-.46-.17h-.03c-.22.09-.34.32-.26.54.07.22.31.34.53.26z"/>
        <path d="m12.6 67.96c-.32-.34-.98 0-.82.42.23.58 1.34.12.82-.42z"/>
        <path d="m14.5 74.48c-.44-.4-.87.28-.6.59s1.09-.18.6-.59z"/>
        <path d="m15.66 22.21c.11-.15.06-.37-.09-.47-.15-.11-.37-.06-.47.09-.02.02-.03.05-.04.08-.14.33.36.74.6.3z"/>
        <path d="m15.03 25.98c.08-.21-.03-.44-.24-.51-.17-.06-.36 0-.46.15-.2.34.46.88.7.36z"/>
        <path d="m15.66 18.06c.25-.63-.82-.1-.34.18.12.13.21.12.34-.18z"/>
        <path d="m14.27 23.53c0 .2.15.37.35.37.14 0 .27-.07.33-.19.32-.65-.67-.62-.69-.18z"/>
        <path d="m15.38 72.98c.25-.14.34-.46.2-.71 0-.02-.02-.03-.03-.05-.17-.19-.46-.21-.66-.05-.39.3 0 1.08.49.81z"/>
        <path d="m15.32 19.79c.03.12.16.19.28.16.08-.02.13-.08.16-.16.18-.45-.56-.35-.43 0z"/>
        <path d="m10.09 66.48c.07-.14.04-.32-.09-.43-.37-.53-.87.12-.6.49.21.15.5.13.69-.06z"/>
        <path d="m8.13 62.38c.16-.03.26-.19.23-.35 0-.04-.02-.08-.05-.11-.4-.76-.92.67-.18.46z"/>
        <path d="m7.93 60.93c.17-.08.24-.27.16-.44 0-.01-.01-.03-.02-.04-.04-.2-.24-.32-.43-.28-.51.13-.24 1.02.3.76z"/>
        <path d="m8.72 59.54c.11.02.22.01.33-.03.16-.06.25-.23.22-.4-.02-.25-.22-.45-.47-.47-.19.01-.37.12-.47.28-.06.28.11.56.39.62z"/>
        <path d="m11.25 66.2c.26-.09.39-.38.3-.63v-.03c-.12-.2-.38-.27-.58-.16h-.02c-.21.12-.3.38-.19.6.09.18.3.27.49.22z"/>
        <path d="m9.49 60.33c-.14-.18-.39-.21-.57-.07-.14.1-.19.28-.14.45.16.43 1.12.16.71-.37z"/>
        <path d="m7.44 58.85c-.08-.18-.28-.25-.46-.18s-.25.28-.18.46c.01.03.03.05.04.07.13.21.91.12.59-.36z"/>
        <path d="m6.81 63.53c.25.23.54-.21.42-.42-.3-.5-.65.21-.42.42z"/>
        <path d="m10.35 67.81c.14-.03.22-.16.19-.3-.01-.07-.06-.12-.11-.16-.49-.48-.65.69-.08.46z"/>
        <path d="m11.14 64.7c.26-.11.31-.31.1-.56-.12-.2-.38-.26-.57-.14-.01 0-.02.02-.03.02-.31.23.1.85.5.68z"/>
        <path d="m10.24 61.67c-.23-.39-1.02-.24-.93.24s1.26.33.93-.24z"/>
        <path d="m9.11 64.29c-.47.21 0 1.03.49.67.18-.14.13-.27 0-.45-.08-.19-.29-.28-.49-.22z"/>
        <path d="m7.18 57.98c.27-.08.28-.2.18-.43-.05-.2-.25-.32-.45-.28-.03 0-.06.02-.09.03-.34.23-.03.81.36.67z"/>
        <path d="m5.16 36c.21.09.36 0 .4-.26.14-.94-1.02-.02-.4.26z"/>
        <path d="m18.25 81.58c.08.45.71-.04.4-.22-.1-.06-.43 0-.4.22z"/>
        <path d="m19 87.8c.34-.34-.43-.29 0 0z"/>
        <path d="m17.84 80.5c-.44-.3-.68.48-.29.58s.43-.53.29-.58z"/>
        <path d="m18.06 83.59c-.12-.04-.25.04-.29.16-.03.1 0 .2.09.26.23.19.68-.3.2-.42z"/>
        <path d="m19.13 86.03c-.41-.16-.28.42 0 .45s.27-.34 0-.45z"/>
        <path d="m21.61 87.76h-.01c-.56 0 .22.71.23.17-.01-.1-.11-.18-.21-.17z"/>
        <path d="m20.87 85.11c-.39-.17-.49.37-.23.49s.62-.33.23-.49z"/>
        <path d="m21.65 82.13c-.06-.04-.12-.07-.19-.08-.09-.05-.21-.05-.3 0-.58.34.16 1.31.59.69.14-.19.1-.46-.09-.61z"/>
        <path d="m19.71 84.19c-.49-.28-.49.4-.27.52.14.09.32.06.41-.08s.06-.32-.08-.41c-.02-.01-.04-.02-.06-.03z"/>
        <path d="m20.2 81.04c-.54-.21-.61.55-.26.72s.89-.49.26-.72z"/>
        <path d="m17.54 77.8c-.2-.06-.42.05-.48.25-.05.15 0 .31.12.41.33.24.96-.45.36-.66z"/>
        <path d="m20.64 83.66c-.15-.08-.34-.02-.43.13-.08.15-.02.34.13.43.3.15.74-.36.3-.56z"/>
        <path d="m14.55 80.02c.17.05.34-.05.39-.22.03-.12 0-.25-.11-.33-.43-.33-.71.45-.28.55z"/>
        <path d="m15.44 76.21c.16-.08.23-.27.15-.43-.03-.07-.09-.12-.15-.15-.7-.43-.65 1.02 0 .58z"/>
        <path d="m15.23 83.59c-.35.5.87.47.38 0-.11-.1-.27-.1-.38 0z"/>
        <path d="m14.63 76.61c-.43-.24-.6.29-.43.5.3.4 1.02-.19.43-.5z"/>
        <path d="m14.58 81.84c-.12-.05-.23-.16-.32.1-.19.55.85.12.32-.1z"/>
        <path d="m16.7 77.18s.06-.06.08-.1c.1-.16.05-.36-.1-.46-.12-.16-.35-.19-.51-.07-.01 0-.03.02-.04.03-.17.16-.18.42-.02.59s.42.18.59.02z"/>
        <path d="m16.9 79.53s-.05-.03-.08-.05c-.13-.12-.34-.12-.47 0-.3.3.26.92.6.52.12-.15.09-.36-.05-.48z"/>
        <path d="m16.97 82.36c.33 0 .21-.43.12-.5-.47-.33-.51.49-.12.5z"/>
        <path d="m15.66 80.86c-.38-.15-.34.36-.16.46.17.1.56-.31.16-.46z"/>
        <path d="m15.66 77.95c-.12-.12-.31-.12-.43 0-.45.39.42.98.67.52.03-.13.05-.29-.23-.52z"/>
        <path d="m13.45 78.02c-.46.71 1.15.49.48 0-.15-.1-.3-.23-.48 0z"/>
        <path d="m27.47 91.84c-.51 0 .16.67.29.25.05-.2-.1-.25-.29-.25z"/>
        <path d="m27.63 84.49c-.26-.06-.52.1-.58.36-.03.14 0 .3.09.41.48.4 1.22-.56.49-.77z"/>
        <path d="m26.41 87.17c-.16-.04-.32.06-.36.22-.03.14.04.28.16.34.3.1.67-.46.19-.56z"/>
        <path d="m27.59 89.49c-.26-.07-.36 0-.41.17-.1.33.57.48.66.11.04-.21-.03-.24-.25-.29z"/>
        <path d="m26.67 85.47c-.17-.07-.36.01-.43.18s.01.36.18.43c.38.15.71-.47.25-.62z"/>
        <path d="m25.99 92.19c-.36.09.24.45.21.11-.02-.09-.12-.14-.2-.11z"/>
        <path d="m28.53 90.49c-.41-.07-.31.47 0 .47s.31-.41 0-.47z"/>
        <path d="m29.29 87.4v-.02c.09-.14.05-.32-.08-.41-.03-.02-.06-.03-.1-.04-.24-.11-.4-.13-.54.1-.1.2-.03.44.17.54s.44.03.54-.17z"/>
        <path d="m28.32 92.54c-.49.43.5.4 0 0z"/>
        <path d="m27.81 86.55c-.69-.22-.62.76-.2.87.28-.05.49-.28.52-.56-.03-.16-.16-.29-.32-.31z"/>
        <path d="m22.23 84.62c-.17-.08-.38-.01-.46.16s-.01.38.16.47c.03.01.05.02.08.03.36.1.65-.49.23-.65z"/>
        <path d="m27.81 87.9c-.52-.13-.45.58-.11.64.18.02.34-.1.37-.28.02-.17-.09-.33-.25-.36z"/>
        <path d="m26.04 84.37c.21.14.5.07.63-.14.02-.04.04-.08.06-.13.08-.2-.01-.43-.21-.51-.04-.01-.07-.02-.11-.03-.19-.08-.41 0-.51.17-.14.21-.07.5.14.63z"/>
        <path d="m23.19 87.29c-.67-.19-.23.93.2.51.22-.23.03-.45-.2-.51z"/>
        <path d="m24.34 84.22c.07-.22-.05-.45-.27-.52-.14-.04-.29-.01-.4.08-.16.16-.15.42 0 .58.16.16.42.15.58 0 .04-.04.06-.08.08-.13z"/>
        <path d="m23.3 85.32c-.16-.08-.36-.02-.45.15-.08.15-.02.34.12.43.28.16.76-.41.32-.58z"/>
        <path d="m23.1 83.65c.12-.17.07-.39-.09-.51-.03-.02-.07-.04-.11-.05-.59-.32-.67.46-.3.65.17.12.39.07.51-.09z"/>
        <path d="m24.34 87.98c-.12-.03-.24.04-.28.16-.03.1.02.21.11.26.31.17.59-.36.16-.42z"/>
        <path d="m25.09 86.95c.17-.08.25-.28.17-.46-.03-.08-.1-.14-.17-.17-.75-.36-.55.94 0 .63z"/>
        <path d="m24.66 84.59c-.14.2-.09.47.11.6.05.03.1.06.16.07.23.05.47-.1.52-.33.04-.17-.03-.35-.18-.45-.2-.14-.47-.09-.6.11z"/>
        <path d="m25.55 82.73s-.04-.02-.07-.03c-.2-.1-.45-.07-.62.09-.18.21-.16.52.05.7s.52.16.7-.05c.03-.03.05-.06.07-.1.13-.2.07-.47-.13-.6z"/>
        <path d="m24.9 89.42c.17.14.4 0 .55-.28-.32-.49-.89.02-.55.28z"/>
        <path d="m12.74 72.87c.23 0 .42-.19.42-.42 0-.13-.06-.26-.17-.34-.69-.63-.9.73-.24.76z"/>
        <path d="m9.3 63.43c0-.06-.03-.12-.06-.17-.49-.68-.99.67-.33.65.24-.02.41-.24.39-.48z"/>
        <path d="m9 72.17c-.42-.3-.3.55 0 .3.16-.1.14-.21 0-.3z"/>
        <path d="m8.36 67.53c.22-.08.27-.27.08-.47-.5-.52-.59.7-.08.47z"/>
        <path d="m9.82 68.53c-.12-.17-.36-.2-.53-.08s-.2.36-.08.53c.24.3.81-.15.61-.44z"/>
        <path d="m9.9 75.89c-.43-.34-.45.47-.14.49.31.03.29-.38.14-.49z"/>
        <path d="m8.24 75.57c.1.06.27-.16.1-.23s-.23.16-.1.23z"/>
        <path d="m9.51 71.18s-.04-.02-.06-.03c-.48-.23-.17.78.13.34.07-.11.04-.24-.07-.31z"/>
        <path d="m10.06 79.36c.2.09.29-.23.13-.34-.32-.2-.3.26-.13.34z"/>
        <path d="m5.56 71c-.23-.57-.48.27 0 0z"/>
        <path d="m6.64 65.19c-.03-.11-.14-.18-.25-.15-.01 0-.02 0-.03.01-.47.25.52.63.29.14z"/>
        <path d="m8.29 78.14c-.29-.16-.21-.14-.23 0-.05.26.52.16.23 0z"/>
        <path d="m10.2 73.84c.15-.09.21-.23 0-.44-.62-.76-.62.81 0 .44z"/>
        <path d="m5.76 67.95c-.17.28.51.23.23 0-.07-.05-.13-.16-.23 0z"/>
        <path d="m6.98 70.25c.02-.12-.04-.24-.14-.3-.41-.25 0 .77.14.3z"/>
        <path d="m5.88 64.27s-.02-.03-.04-.04c-.32-.35-.46.5 0 .3.08-.06.1-.18.04-.27z"/>
        <path d="m6.21 66.88s-.07.04-.1.06c-.35.43.68.5.41.08-.05-.13-.19-.19-.31-.14z"/>
        <path d="m8.03 66.23c.06-.15.01-.33-.12-.43-.06-.12-.2-.16-.32-.11-.42.21.16 1.07.44.54z"/>
        <path d="m6.83 71.92c.32.37.29-.4 0 0z"/>
        <path d="m7.43 64.67c-.24-.29-.45.12-.36.28s.64.04.36-.28z"/>
        <path d="m8.02 68.61c-.44-.45-.36.65.05.32.16-.13.07-.2-.05-.32z"/>
        <path d="m5.75 57.28c.13-.08.13-.15.07-.36 0-.18-.14-.33-.32-.35-.68.02-.16.95.25.71z"/>
        <path d="m11.81 75.81c-.09-.07-.22-.05-.29.05-.07.09-.05.22.05.29.19.19.62-.13.24-.34z"/>
        <path d="m12.47 70.84c-.27-.33-.87-.09-.62.31.16.27 1.04.17.62-.31z"/>
        <path d="m11.58 73.09c-.14-.14-.36-.14-.5 0-.11.11-.14.28-.07.41.21.33 1.09.06.57-.41z"/>
        <path d="m11.28 77.56c-.34.52 1.01.49.38 0-.12-.1-.25-.21-.38 0z"/>
        <path d="m12.89 79.75c-.16-.1-.25-.16-.38 0s.31.6.49.31c.05-.08.05-.19-.11-.31z"/>
        <path d="m13.74 75.65s-.05-.08-.08-.11c-.72-.87-.87 1-.09.55.17-.07.24-.27.17-.44z"/>
        <path d="m12.53 74.78c.26.16.7-.27.5-.5-.36-.42-.94.2-.5.5z"/>
        <path d="m9.92 70.52c.17.15.47-.13.46-.24-.01-.06-.06-.11-.11-.14-.36-.39-.52.23-.35.38z"/>
        <path d="m12.89 77.26c.09-.13.05-.31-.08-.4-.01 0-.02-.01-.03-.02-.39-.25-.52.3-.29.49.13.09.31.05.4-.08z"/>
        <path d="m11.01 68.87c.01-.09-.01-.19-.08-.26-.46-.62-.82.46-.28.52.17.03.33-.09.36-.26z"/>
        <path d="m10.69 75.09c.31.33.22-.37 0 0z"/>
        <path d="m11.15 71.61c-.22-.3-.69-.2-.64.11.07.46 1.05.43.64-.11z"/>
        <path d="m62.08 42.97v-17.81c0-.11-.09-.2-.2-.2h-23.6c-.11 0-.2.09-.2.2v17.81c0 .11.09.2.2.2h6c.11.21.24.42.37.62l-1.38 1.88c-.06.08-.05.19.02.26l.89.9c.07.07.18.08.26.02l1.86-1.39c.76.54 1.66.92 2.63 1.1l.33 2.29c.01.1.1.17.2.17h1.27c.1 0 .18-.07.2-.17l.33-2.29c.96-.18 1.84-.55 2.6-1.1l1.85 1.39c.08.06.19.05.26-.02l.89-.9c.07-.07.08-.18.02-.26l-1.37-1.88c.13-.18.24-.37.35-.57l6.02-.05c.11 0 .2-.09.2-.2zm-23.61-17.62h23.21v3.43h-14.11l-1.71-1.12s-.07-.03-.11-.03h-7.28zm16.63 18.32c-.05.07-.05.16 0 .23l1.36 1.86-.65.66-1.83-1.37c-.07-.05-.17-.05-.24 0-.78.59-1.69.97-2.69 1.14-.08.01-.15.08-.16.17l-.33 2.26h-.93l-.33-2.26c-.01-.09-.08-.15-.16-.17-1.01-.17-1.95-.56-2.72-1.14-.07-.05-.17-.05-.24 0l-1.84 1.37-.65-.66 1.36-1.86c.05-.07.05-.16 0-.23-.59-.84-.97-1.78-1.1-2.72-.01-.09-.08-.15-.16-.17l-2.26-.36v-.26h4.66c.05.96.46 1.87 1.16 2.59.73.74 1.71 1.14 2.75 1.14s2.02-.41 2.75-1.14c.69-.7 1.09-1.61 1.13-2.59h4.69v.26l-2.26.36c-.08.01-.15.08-.16.16-.17 1.01-.56 1.95-1.13 2.72zm-8.52-3.5h6.99c-.05.87-.4 1.69-1.02 2.31-.65.66-1.53 1.03-2.46 1.03-.94 0-1.81-.36-2.47-1.03-.63-.64-.99-1.45-1.04-2.31zm15.1 2.61-5.62.05c.24-.52.43-1.09.53-1.67l2.29-.36c.1-.02.17-.1.17-.2v-.43h1.53c.11 0 .2-.09.2-.2s-.09-.2-.2-.2h-21.01c-.11 0-.2.09-.2.2s.09.2.2.2h1.56v.43c0 .1.07.18.17.2l2.29.36c.09.55.26 1.09.5 1.62h-5.61v-14.75h7.22l1.71 1.12s.07.03.11.03h14.17v13.6z"/>
        <path d="m59.67 27.78c.41 0 .74-.33.74-.74s-.33-.74-.74-.74-.74.33-.74.74.33.74.74.74zm0-1.09c.19 0 .34.16.34.35s-.15.35-.34.35-.34-.16-.34-.35.15-.35.34-.35z"/>
        <path d="m57.78 27.78c.43 0 .76-.33.76-.74s-.34-.74-.76-.74c-.41 0-.74.33-.74.74s.33.74.74.74zm0-1.09c.21 0 .37.15.37.35s-.16.35-.37.35c-.19 0-.34-.16-.34-.35s.16-.35.34-.35z"/>
        <path d="m55.51 33.57h5.24c.11 0 .2-.09.2-.2v-1.69c0-.11-.09-.2-.2-.2h-5.24c-.11 0-.2.09-.2.2v1.69c0 .11.09.2.2.2zm.2-1.69h4.85v1.3h-4.85z"/>
        <path d="m55.51 36.57h5.24c.11 0 .2-.09.2-.2v-1.72c0-.11-.09-.2-.2-.2h-5.24c-.11 0-.2.09-.2.2v1.72c0 .11.09.2.2.2zm.2-1.72h4.85v1.32h-4.85z"/>
        <path d="m40.46 31.21c0 .11.09.2.2.2h7.83c.11 0 .2-.09.2-.2s-.09-.2-.2-.2h-7.83c-.11 0-.2.09-.2.2z"/>
        <path d="m48.49 32.57h-7.83c-.11 0-.2.09-.2.2s.09.2.2.2h7.83c.11 0 .2-.09.2-.2s-.09-.2-.2-.2z"/>
        <path d="m45.17 34.3c0-.11-.09-.2-.2-.2h-4.32c-.11 0-.2.09-.2.2s.09.2.2.2h4.32c.11 0 .2-.09.2-.2z"/>
        <path d="m48.49 35.65h-2.57c-.11 0-.2.09-.2.2s.09.2.2.2h2.57c.11 0 .2-.09.2-.2s-.09-.2-.2-.2z"/>
        <path d="m48.49 37.18h-7.83c-.11 0-.2.09-.2.2s.09.2.2.2h7.83c.11 0 .2-.09.2-.2s-.09-.2-.2-.2z"/>
        <path d="m42.03 35.65c-.11 0-.2.09-.2.2s.09.2.2.2h2.57c.11 0 .2-.09.2-.2s-.09-.2-.2-.2z"/>
        <path d="m46.95 34.49c.11 0 .2-.09.2-.2s-.09-.2-.2-.2h-1.38c-.11 0-.2.09-.2.2s.09.2.2.2z"/>
        <path d="m55.13 37.85h5.97c.11 0 .2-.09.2-.2s-.09-.2-.2-.2h-5.97c-.11 0-.2.09-.2.2s.09.2.2.2z"/>
        <path d="m61.47 62.29c-1.11 0-1.4-.65-1.53-1.23h-.33v1.1c.37.35.92.61 1.9.61 1.45 0 2.13-.58 2.13-1.35 0-.66-.5-1.18-1.38-1.56-.63-.27-1.26-.49-1.47-.68-.62-.57.17-1.02.58-1.08 1.04-.14 1.42.23 1.6.98h.34c0-.28-.03-.91-.03-.91-.6-.47-1.3-.61-1.94-.55-1.14.11-1.79.48-1.79 1.44 0 .69.82 1.02 1.38 1.3.52.26 1.21.5 1.4 1.06.2.6-.52.87-.86.87z"/>
        <path d="m52.05 62.35v.26h1.89v-.26c-.23 0-.44-.08-.43-.28v-5.97c-.01-.2.2-.28.43-.28v-.26h-1.73l-1.96 3.66-2.06-3.66h-1.74v.26c.23 0 .44.08.43.28v5.97c.01.2-.2.28-.43.28v.26h1.77v-.26c-.23 0-.44-.08-.43-.28v-5.22l2.17 3.7h.5l2.02-3.67v5.19c.01.2-.2.28-.43.28z"/>
        <path d="m56.3 62.76c.74 0 1.18-.33 1.34-.62.04.26.26.47.54.47h.92v-.26c-.22 0-.43-.08-.43-.28v-2.54c0-.7-.43-1.34-1.33-1.68-.39-.15-1.16-.16-1.67.13-.71.4-.94.77-.94 1.15 0 .22.15.44.37.44.25 0 .46-.15.55-.36l.53-1.09c.21-.11 1.4-.15 1.4.79v.78c-.37-.03-.82-.04-1.31.03-1.07.14-1.83.63-1.73 1.71.19 1.21 1.22 1.33 1.76 1.33zm1.31-2.91v1.88c-.19.16-.55.36-.94.38-.6.03-1.2-.17-1.2-.94 0-.93 1.07-1.15 2.14-1.32z"/>
        <path d="m54.55 61.44s0-.03 0-.05z"/>
        <path d="m31.53 58.3h.87v2.88c0 .83.45 1.54 1.65 1.54.27 0 .52-.12.9-.35l-.31-.29c-.19.11-.67.07-.84-.1-.27-.27-.24-.79-.24-1.3v-2.38h1.19v-.45h-1.19v-1.73h-.59l-.57 1.6v.02l-.87.31v.25z"/>
        <path d="m68.92 61.44s0-.03 0-.05z"/>
        <path d="m20.32 61.22v-5.21c0-.2.21-.28.43-.28v-.26h-1.87v.26c.22 0 .43.08.43.28v4.71c0 .51.03 1.03-.24 1.3-.17.17-.65.21-.84.1l-.31.29c.3.23.7.35.97.35.98 0 1.43-.71 1.43-1.54z"/>
        <path d="m66.15 62.29c-1.11 0-1.4-.65-1.53-1.23h-.33v1.1c.37.35.92.61 1.9.61 1.45 0 2.13-.58 2.13-1.35 0-.66-.5-1.18-1.38-1.56-.63-.27-1.26-.49-1.47-.68-.62-.57.17-1.02.58-1.08 1.04-.14 1.42.23 1.6.98h.34c0-.28-.03-.91-.03-.91-.6-.47-1.3-.61-1.94-.55-1.14.11-1.79.48-1.79 1.44 0 .69.82 1.02 1.38 1.3.52.26 1.21.5 1.4 1.06.2.6-.52.87-.86.87z"/>
        <path d="m75.88 58.72c.27-.3.73-.34 1.06-.2.08.16.15.32.25.65.09.29.67.37.92.02s0-1.12-.36-1.33c-.05-.03-.11-.06-.17-.08-.38-.16-.91-.22-1.26-.03-.32.17-.68.39-.84.78v-.83l-1.08.4-.43.1v.26c.22 0 .43.08.43.28v3.32c0 .2-.21.28-.43.28v.26h1.94v-.25c-.22 0-.43-.08-.43-.28v-1.48c0-1.3.06-1.49.4-1.88z"/>
        <path d="m70.05 57.99c-.71.4-.94.77-.94 1.15 0 .22.15.44.37.44.25 0 .46-.15.55-.36l.53-1.09c.21-.11 1.4-.15 1.4.79v.78c-.37-.03-.82-.04-1.31.03-1.07.14-1.83.63-1.73 1.71.19 1.21 1.22 1.33 1.76 1.33.74 0 1.18-.33 1.34-.62.04.26.26.47.54.47h.92v-.26c-.22 0-.43-.08-.43-.28v-2.54c0-.7-.43-1.34-1.33-1.68-.39-.15-1.16-.16-1.67.13zm1.95 3.74c-.2.16-.56.36-.95.38-.6.03-1.2-.17-1.2-.94 0-.93 1.07-1.15 2.14-1.32v1.88z"/>
        <path d="m27.07 59.06c0 .69.82 1.02 1.38 1.3.52.26 1.21.5 1.4 1.06.2.6-.52.87-.86.87-1.11 0-1.4-.65-1.53-1.23h-.33v1.1c.37.35.92.61 1.9.61 1.45 0 2.13-.58 2.13-1.35 0-.66-.5-1.18-1.38-1.56-.63-.27-1.26-.49-1.47-.68-.62-.57.17-1.02.58-1.08 1.04-.14 1.42.23 1.6.98h.34c0-.28-.03-.91-.03-.91-.6-.47-1.3-.61-1.94-.55-1.14.11-1.79.48-1.79 1.44z"/>
        <path d="m35.44 62.35v.26h1.96v-.26c-.22 0-.43-.08-.43-.28v-4.43l-1.53.5v.26c.22 0 .43.08.43.28v3.39c0 .2-.21.28-.43.28z"/>
        <path d="m24.98 62 .05.61h1.45v-.26c-.22 0-.43-.08-.43-.28v-4.41l-1.11.37-.43.13v.26c.22 0 .43.08.43.28v2.57c0 .42-.32.84-.94.79-1.1-.08-1.19-1.02-1.19-1.45v-2.93l-1.04.36-.43.14v.26c.22 0 .43.08.43.28v2.03c0 .44.16 2.02 1.73 2.02 1.03 0 1.37-.46 1.48-.75z"/>
        <path d="m35.61 56.06c0 .39.33.7.72.7s.71-.3.71-.7-.33-.7-.71-.7-.72.3-.72.7z"/>
        <path d="m81.61 62.08c-.19.11-.67.07-.84-.1-.27-.27-.24-.79-.24-1.3v-2.38h1.19v-.45h-1.19v-1.73h-.59l-.57 1.6v.02l-.87.31v.25h.87v2.88c0 .83.45 1.54 1.65 1.54.27 0 .52-.12.9-.35z"/>
        <path d="m40.03 62.35c-.22 0-.43-.08-.43-.28v-3.22c0-.17.44-.78 1.1-.78.76 0 1.11.54 1.11 1.69v2.32c0 .2-.21.28-.43.28v.26h1.99v-.26c-.22 0-.43-.08-.43-.28v-2.26c0-.88-.05-1.3-.22-1.59-.23-.4-.76-.79-1.92-.68-.98.09-1.18.71-1.27.84v-.9l-1.06.36-.43.14v.26c.22 0 .43.08.43.28v3.54c0 .2-.21.28-.43.28v.26h1.99z"/>
        <path d="m55.57 73.93c.31 0 .5-.1 1.38-.63.22.47.4.63.7.63.39 0 1.17-.28 1.17-.48 0-.04-.02-.1-.06-.13-.13-.08-.79.23-.79-.54v-1.94c0-.65-.07-1.5-1.14-1.5-.7 0-2.09.39-2.07.62l.02.17c0 .06.06.11.15.1.34-.04.92-.17 1.4-.17.36 0 .64.06.64.63v.37c0 .23-.08.24-.36.33l-1.34.43c-.66.21-.95.48-.95.97 0 .74.62 1.12 1.26 1.12zm.26-1.78.93-.31c.17-.06.17-.06.22-.1v.72c0 .47-.5.8-.96.8-.39 0-.62-.22-.62-.57 0-.28.15-.43.44-.53z"/>
        <path d="m75.09 69.35c-.3 0-.81.37-1.15.59-.2.13-.22-.19-.22-.46 0-.08-.05-.16-.16-.13l-1.45.4c-.07.02-.11.26-.04.27.39.05.62.15.62.59v2.09c0 .63-.36.77-.63.81-.07 0 0 .28.06.28h2.5c.18 0 .21-.27.15-.28-.84-.13-1.09-.17-1.09-.81v-1.83c0-.48.39-.59.76-.59.49 0 .71.24.75.24.14 0 .24-.32.32-.76.03-.15-.3-.41-.43-.41z"/>
        <path d="m61.84 71.46-1.25-.63c-.64-.32-.51-.91.18-.91.91 0 1.26.91 1.48.36l.16-.39c.11-.27-.59-.54-1.27-.54-1.8 0-2.27 1.76-.86 2.47l1.2.61c.71.36.59.95-.3.95-1.03 0-1.4-.96-1.62-.4l-.15.39c-.1.28.68.58 1.42.58 1.97 0 2.47-1.73 1-2.47z"/>
        <path d="m38.83 73.08c-.47.1-.86.15-.95.15-.73 0-1.65-.48-1.83-1.62l2.73-.07c.09-.21.17-.57.17-.81 0-.39-.17-1.38-1.56-1.38-1.64 0-2.31 1.33-2.31 2.42 0 1.62 1.45 2.16 2.58 2.16.17 0 .92-.42 1.28-.6.06-.03-.02-.28-.1-.26zm-1.76-3.14c.81 0 1.05.63.95 1.13l-1.99.06c.03-.7.31-1.19 1.04-1.19z"/>
        <path d="m71.28 73.34c.06-.03-.02-.28-.1-.26-.47.1-.86.15-.95.15-.73 0-1.65-.48-1.83-1.62l2.73-.07c.09-.21.17-.57.17-.81 0-.39-.17-1.38-1.56-1.38-1.64 0-2.31 1.33-2.31 2.42 0 1.62 1.45 2.16 2.58 2.16.17 0 .92-.42 1.28-.6zm-1.86-3.4c.81 0 1.05.63.95 1.13l-1.99.06c.03-.7.31-1.19 1.04-1.19z"/>
        <path d="m44.54 71.34c0-1.35-.9-1.99-1.85-1.99-1.05 0-1.48.79-1.48.06v-.69c0-.84.1-1.39.17-1.68.03-.12-.05-.18-.13-.17l-1.78.37c-.06 0-.09.25-.02.26.64.06.78.24.78 1.22v3.64c0 .36 0 .72-.06 1.06.51.3 1.12.51 1.84.51 1.78 0 2.52-1.38 2.52-2.59zm-3.32 1.17v-1.84c0-.31.47-.74 1.02-.74.73 0 1.29.73 1.29 1.91 0 .95-.36 1.53-1.17 1.53-.6 0-1.15-.32-1.15-.86z"/>
        <path d="m31.97 72.24 1.39-3.6c.3-.78.59-.92.95-.97.12-.02.09-.31-.03-.31h-1.97c-.11 0-.13.29-.03.31.44.08.74.18.44.97l-1.4 3.67-1.41-3.67c-.31-.81.09-1.09.09-1.21 0-.05-.03-.07-.12-.07h-1.83c-.12 0-.13.28-.03.31.24.06.48.27.82 1.14.25.63.22.93 0 1.41l-.94 2.17-1.45-3.75c-.28-.71-.06-.9.37-.97.11-.02.09-.31-.03-.31h-2.39c-.12 0-.15.29-.03.31.36.06.63.19.95.98l2.09 5.27c.03.06.68-.08.68-.14 0-.37.11-.78.44-1.54l.86-1.99 1.44 3.67c.03.06.67-.08.67-.14 0-.36.15-.78.44-1.54z"/>
        <path d="m51.64 72.65c.03.58-.26.76-.64.83-.06 0 0 .31.06.31h2.4c.06 0 .12-.3.05-.31-.39-.05-.72-.18-.75-.83l-.29-5.27c0-.16-.38-.17-.46 0l-2.47 4.98-2.66-4.98c-.09-.17-.44-.16-.45 0l-.29 5.27c-.04.64-.37.78-.76.83-.07 0-.02.31.06.31h1.9c.06 0 .12-.3.05-.31-.29-.04-.67-.18-.64-.83l.14-3.13 2.12 4.02c.06.11.15.17.28.17.15 0 .34-.06.36-.17.03-.15.17-.55.37-.95l1.49-3.03.17 3.08z"/>
        <path d="m65.01 73.93c.75-.17 1.18-.29 1.69-.5.09-.04 0-.31-.06-.3-.25.03-.75.08-1.04.08-.32 0-.5-.13-.5-.48v-2.17c0-.42.32-.43.95-.39l.36.03c.15 0 .29-.33.29-.57 0-.12-.04-.2-.13-.19-.33.03-.75.12-1.09.12-.22 0-.37-.1-.37-.43 0-.11.02-.25.06-.41s-.21-.29-.33-.16c-.5.57-.84.82-1.53 1.09-.07.03-.07.31.03.31.64 0 .8.16.8.69v2.65c0 .27.5.62.88.62z"/>
    </g>
</svg>